<?xml version="1.0" encoding="UTF-8"?>
<!DOCTYPE svg PUBLIC "-//W3C//DTD SVG 1.1//EN" "http://www.w3.org/Graphics/SVG/1.1/DTD/svg11.dtd">
<svg xmlns="http://www.w3.org/2000/svg" version="1.1" width="307px" height="164px" style="shape-rendering:geometricPrecision; text-rendering:geometricPrecision; image-rendering:optimizeQuality; fill-rule:evenodd; clip-rule:evenodd" xmlns:xlink="http://www.w3.org/1999/xlink">
<g><path style="opacity:1" fill="#fefefe" d="M -0.5,-0.5 C 101.833,-0.5 204.167,-0.5 306.5,-0.5C 306.5,54.1667 306.5,108.833 306.5,163.5C 204.167,163.5 101.833,163.5 -0.5,163.5C -0.5,108.833 -0.5,54.1667 -0.5,-0.5 Z"/></g>
<g><path style="opacity:1" fill="#e61c3c" d="M 153.5,30.5 C 161.658,29.8229 165.158,33.4895 164,41.5C 161.928,46.1433 158.428,47.6433 153.5,46C 149.139,43.7742 147.639,40.2742 149,35.5C 150.193,33.5029 151.693,31.8362 153.5,30.5 Z"/></g>
<g><path style="opacity:1" fill="#e5173a" d="M 104.5,39.5 C 107.5,39.5 110.5,39.5 113.5,39.5C 113.334,46.5079 113.5,53.5079 114,60.5C 119.487,54.345 126.32,52.0117 134.5,53.5C 134.5,56.5 134.5,59.5 134.5,62.5C 130.208,62.0349 126.208,62.8682 122.5,65C 118.399,69.2943 118.732,73.2943 123.5,77C 127.06,78.2367 130.727,78.7367 134.5,78.5C 134.5,81.5 134.5,84.5 134.5,87.5C 126.32,88.9883 119.487,86.655 114,80.5C 113.503,82.8098 113.337,85.1432 113.5,87.5C 110.5,87.5 107.5,87.5 104.5,87.5C 104.5,71.5 104.5,55.5 104.5,39.5 Z"/></g>
<g><path style="opacity:1" fill="#e6193b" d="M 190.5,53.5 C 194.167,53.5 197.833,53.5 201.5,53.5C 201.5,56.5 201.5,59.5 201.5,62.5C 194.241,61.2915 189.241,63.9582 186.5,70.5C 187.263,74.431 189.597,76.931 193.5,78C 196.146,78.4974 198.813,78.6641 201.5,78.5C 201.5,81.5 201.5,84.5 201.5,87.5C 190.015,89.5122 182.182,85.1789 178,74.5C 176.993,69.8887 177.66,65.5554 180,61.5C 182.975,57.9525 186.475,55.2858 190.5,53.5 Z"/></g>
<g><path style="opacity:1" fill="#e6193b" d="M 148.5,101.5 C 145.5,101.5 142.5,101.5 139.5,101.5C 139.5,90.1667 139.5,78.8333 139.5,67.5C 144.117,53.866 153.117,50.0327 166.5,56C 173.085,61.3573 175.251,68.1906 173,76.5C 168.079,86.5413 160.246,89.8746 149.5,86.5C 148.506,91.456 148.173,96.456 148.5,101.5 Z"/></g>
<g><path style="opacity:1" fill="#fef6f7" d="M 154.5,62.5 C 161.806,62.6375 164.973,66.3042 164,73.5C 159.049,80.1541 154.049,80.1541 149,73.5C 148.176,68.4818 150.009,64.8152 154.5,62.5 Z"/></g>
<g><path style="opacity:1" fill="#f3a2ac" d="M 139.5,67.5 C 139.5,78.8333 139.5,90.1667 139.5,101.5C 142.5,101.5 145.5,101.5 148.5,101.5C 145.375,102.479 142.042,102.813 138.5,102.5C 138.172,90.6547 138.505,78.988 139.5,67.5 Z"/></g>
<g><path style="opacity:1" fill="#8a8a89" d="M 106.5,109.5 C 108.179,109.892 109.846,110.392 111.5,111C 108.5,119.667 105.5,119.667 102.5,111C 104.058,110.79 105.391,110.29 106.5,109.5 Z"/></g>
<g><path style="opacity:1" fill="#7d7d7d" d="M 112.5,109.5 C 113.926,110.802 115.259,112.302 116.5,114C 115.08,115.53 114.08,117.363 113.5,119.5C 112.513,116.232 112.18,112.898 112.5,109.5 Z"/></g>
<g><path style="opacity:1" fill="#959594" d="M 139.5,116.5 C 137.956,116.297 136.622,115.63 135.5,114.5C 134.522,114.977 133.689,115.643 133,116.5C 133.932,114.418 134.432,112.085 134.5,109.5C 135.5,109.5 136.5,109.5 137.5,109.5C 137.4,112.108 138.067,114.442 139.5,116.5 Z"/></g>
<g><path style="opacity:1" fill="#8a8a8a" d="M 149.5,109.5 C 150.497,109.47 151.164,109.97 151.5,111C 152.56,113.251 153.393,115.418 154,117.5C 153,116.5 152,115.5 151,114.5C 150,115.5 149,116.5 148,117.5C 148.73,114.979 149.23,112.313 149.5,109.5 Z"/></g>
<g><path style="opacity:1" fill="#838383" d="M 171.5,109.5 C 172.725,110.152 173.392,111.319 173.5,113C 172.941,117.277 172.274,117.444 171.5,113.5C 167.5,113.167 167.5,112.833 171.5,112.5C 171.5,111.5 171.5,110.5 171.5,109.5 Z"/></g>
<g><path style="opacity:1" fill="#868686" d="M 191.5,109.5 C 193.029,110.347 194.696,111.014 196.5,111.5C 198.044,111.21 199.377,110.544 200.5,109.5C 201.466,111.396 201.799,113.396 201.5,115.5C 198.167,115.5 194.833,115.5 191.5,115.5C 191.5,113.5 191.5,111.5 191.5,109.5 Z"/></g>
<g><path style="opacity:1" fill="#838382" d="M 177.5,109.5 C 178.893,110.26 180.393,110.926 182,111.5C 183.365,111.156 184.532,110.489 185.5,109.5C 186.466,111.396 186.799,113.396 186.5,115.5C 185.325,115.281 184.325,115.614 183.5,116.5C 185.078,117.298 186.744,117.798 188.5,118C 184.167,118.667 179.833,118.667 175.5,118C 177.256,117.798 178.922,117.298 180.5,116.5C 179.675,115.614 178.675,115.281 177.5,115.5C 177.5,113.5 177.5,111.5 177.5,109.5 Z"/></g>
<g><path style="opacity:1" fill="#f9f9f9" d="M 106.5,111.5 C 108.104,112.287 108.771,113.62 108.5,115.5C 107.5,115.5 106.5,115.5 105.5,115.5C 105.433,114.041 105.766,112.708 106.5,111.5 Z"/></g>
<g><path style="opacity:1" fill="#fcfcfc" d="M 179.5,112.5 C 181.288,112.215 182.955,112.548 184.5,113.5C 183.667,113.833 182.833,114.167 182,114.5C 180.624,114.316 179.791,113.649 179.5,112.5 Z"/></g>
<g><path style="opacity:1" fill="#f0f0f0" d="M 193.5,112.5 C 195.604,112.201 197.604,112.534 199.5,113.5C 198.5,113.833 197.5,114.167 196.5,114.5C 194.97,114.36 193.97,113.693 193.5,112.5 Z"/></g>
<g><path style="opacity:1" fill="#868686" d="M 156.5,109.5 C 157.926,110.802 159.259,112.302 160.5,114C 159.08,115.53 158.08,117.363 157.5,119.5C 156.513,116.232 156.18,112.898 156.5,109.5 Z"/></g>
<g><path style="opacity:1" fill="#959594" d="M 164.5,109.5 C 166.407,111.447 167.573,113.78 168,116.5C 166.225,113.956 164.392,113.956 162.5,116.5C 162.167,116.167 161.833,115.833 161.5,115.5C 163.415,113.929 164.415,111.929 164.5,109.5 Z"/></g>
<g><path style="opacity:1" fill="#9c9c9c" d="M 119.5,110.5 C 122.287,109.523 125.287,109.19 128.5,109.5C 128.5,111.167 128.5,112.833 128.5,114.5C 129.675,114.281 130.675,114.614 131.5,115.5C 129.577,116.308 127.577,116.808 125.5,117C 126.793,117.49 128.127,117.657 129.5,117.5C 129.5,119.5 129.5,121.5 129.5,123.5C 128.5,123.5 127.5,123.5 126.5,123.5C 126.5,122.167 126.5,120.833 126.5,119.5C 124.076,119.808 121.743,119.474 119.5,118.5C 120.376,117.749 121.376,117.249 122.5,117C 120.744,116.798 119.078,116.298 117.5,115.5C 120.428,114.516 123.428,114.183 126.5,114.5C 126.5,113.167 126.5,111.833 126.5,110.5C 124.167,110.5 121.833,110.5 119.5,110.5 Z"/></g>
<g><path style="opacity:1" fill="#7d7d7b" d="M 190.5,118.5 C 199.728,117.325 202.061,117.325 197.5,118.5C 196.833,125.167 196.167,125.167 195.5,118.5C 193.833,118.5 192.167,118.5 190.5,118.5 Z"/></g>
<g><path style="opacity:1" fill="#a4a4a3" d="M 139.5,116.5 C 140.165,114.302 140.832,111.969 141.5,109.5C 142.598,113.361 143.431,113.361 144,109.5C 144.667,111.833 144.667,114.167 144,116.5C 143.667,115.5 143.333,114.5 143,113.5C 142.833,114.167 142.667,114.833 142.5,115.5C 144.106,117.59 144.606,119.924 144,122.5C 141.756,124.994 139.423,124.994 137,122.5C 136.034,119.66 136.867,117.66 139.5,116.5 Z"/></g>
<g><path style="opacity:1" fill="#a8a8a8" d="M 166.5,117.5 C 168.604,117.201 170.604,117.534 172.5,118.5C 173.869,122.849 172.202,124.682 167.5,124C 164.118,122.13 163.784,119.964 166.5,117.5 Z"/></g>
<g><path style="opacity:1" fill="#818180" d="M 149.5,119.5 C 151.048,119.821 151.715,120.821 151.5,122.5C 153.857,122.337 156.19,122.503 158.5,123C 155.518,123.498 152.518,123.665 149.5,123.5C 149.5,122.167 149.5,120.833 149.5,119.5 Z"/></g>
<g><path style="opacity:1" fill="#848483" d="M 105.5,119.5 C 107.048,119.821 107.715,120.821 107.5,122.5C 109.857,122.337 112.19,122.503 114.5,123C 111.518,123.498 108.518,123.665 105.5,123.5C 105.5,122.167 105.5,120.833 105.5,119.5 Z"/></g>
<g><path style="opacity:1" fill="#838381" d="M 177.5,119.5 C 179.048,119.821 179.715,120.821 179.5,122.5C 182.187,122.336 184.854,122.503 187.5,123C 184.183,123.498 180.85,123.665 177.5,123.5C 177.5,122.167 177.5,120.833 177.5,119.5 Z"/></g>
<g><path style="opacity:1" fill="#c4c4c3" d="M 162.5,130.5 C 163.249,129.469 163.915,128.302 164.5,127C 168.261,126.262 171.928,126.595 175.5,128C 174.91,129.509 174.244,131.009 173.5,132.5C 171.602,127.436 170.102,127.436 169,132.5C 168.458,127.279 167.624,127.279 166.5,132.5C 165.719,131.271 165.219,129.938 165,128.5C 164.71,130.044 164.044,131.377 163,132.5C 162.536,131.906 162.369,131.239 162.5,130.5 Z"/></g>
<g><path style="opacity:1" fill="#bebebe" d="M 178.5,127.5 C 180.527,127.338 182.527,127.505 184.5,128C 184.5,129.333 184.5,130.667 184.5,132C 182.5,132.667 180.5,132.667 178.5,132C 177.272,130.51 177.272,129.01 178.5,127.5 Z"/></g>
<g><path style="opacity:1" fill="#9a9a99" d="M 136.5,127.5 C 137.833,127.5 139.167,127.5 140.5,127.5C 140.669,132.041 140.002,132.374 138.5,128.5C 136.998,132.374 136.331,132.041 136.5,127.5 Z"/></g>
<g><path style="opacity:1" fill="#9a9a9a" d="M 104.5,127.5 C 105.606,128.149 106.606,128.483 107.5,128.5C 105.101,133.975 104.101,133.641 104.5,127.5 Z"/></g>
<g><path style="opacity:1" fill="#b1b1b1" d="M 108.5,127.5 C 112.356,127.855 116.356,128.022 120.5,128C 120.5,129.333 120.5,130.667 120.5,132C 117.621,132.957 115.121,132.457 113,130.5C 112.667,130.833 112.333,131.167 112,131.5C 111,127.5 110,127.5 109,131.5C 108.51,130.207 108.343,128.873 108.5,127.5 Z"/></g>
<g><path style="opacity:1" fill="#979796" d="M 128.5,127.5 C 131.598,127.413 131.932,127.913 129.5,129C 130.28,130.073 130.113,131.24 129,132.5C 128.506,130.866 128.34,129.199 128.5,127.5 Z"/></g>
<g><path style="opacity:1" fill="#b2b2b2" d="M 162.5,130.5 C 161.778,130.082 161.278,129.416 161,128.5C 160,133.833 159,133.833 158,128.5C 157.182,133.794 156.682,133.794 156.5,128.5C 155.167,128.5 153.833,128.5 152.5,128.5C 152.649,129.552 152.483,130.552 152,131.5C 151.333,130.167 150.667,130.167 150,131.5C 149.333,130.167 149.333,128.833 150,127.5C 150.333,127.833 150.667,128.167 151,128.5C 154.33,126.862 157.83,126.362 161.5,127C 162.337,128.011 162.67,129.178 162.5,130.5 Z"/></g>
<g><path style="opacity:1" fill="#989897" d="M 132.5,127.5 C 133.5,127.5 134.5,127.5 135.5,127.5C 135.657,128.873 135.49,130.207 135,131.5C 133.984,130.366 133.317,130.699 133,132.5C 132.506,130.866 132.34,129.199 132.5,127.5 Z"/></g>
<g><path style="opacity:1" fill="#c2c2c2" d="M 188.5,126.5 C 193.012,126.149 197.345,126.815 201.5,128.5C 200.855,129.732 200.689,131.065 201,132.5C 199.044,132.216 196.877,132.216 194.5,132.5C 193.968,127.203 193.134,127.203 192,132.5C 191.572,127.502 190.739,127.335 189.5,132C 188.207,132.49 186.873,132.657 185.5,132.5C 185.215,130.712 185.548,129.045 186.5,127.5C 188.005,130.131 188.671,129.797 188.5,126.5 Z"/></g>
</svg>
