<?xml version="1.0" encoding="UTF-8"?>
<!DOCTYPE svg PUBLIC "-//W3C//DTD SVG 1.1//EN" "http://www.w3.org/Graphics/SVG/1.1/DTD/svg11.dtd">
<svg xmlns="http://www.w3.org/2000/svg" version="1.1" width="219px" height="230px" style="shape-rendering:geometricPrecision; text-rendering:geometricPrecision; image-rendering:optimizeQuality; fill-rule:evenodd; clip-rule:evenodd" xmlns:xlink="http://www.w3.org/1999/xlink">
<g><path style="opacity:1" fill="#f4f5f5" d="M -0.5,-0.5 C 72.5,-0.5 145.5,-0.5 218.5,-0.5C 218.5,76.1667 218.5,152.833 218.5,229.5C 145.5,229.5 72.5,229.5 -0.5,229.5C -0.5,152.833 -0.5,76.1667 -0.5,-0.5 Z"/></g>
<g><path style="opacity:1" fill="#1e993f" d="M 95.5,10.5 C 150.167,7.90186 188.334,31.5685 210,81.5C 222.77,125.921 212.937,164.421 180.5,197C 141.707,228.442 100.041,232.775 55.5,210C 11.2742,180.675 -5.22578,139.841 6,87.5C 20.9821,44.3374 50.8154,18.6707 95.5,10.5 Z"/></g>
<g><path style="opacity:1" fill="#f9faf8" d="M 96.5,13.5 C 148.043,10.9326 184.543,32.9326 206,79.5C 221.027,125.899 210.527,165.399 174.5,198C 142.765,221.676 108.098,227.009 70.5,214C 19.6409,189.118 -1.19245,148.618 8,92.5C 21.4185,47.9037 50.9185,21.5703 96.5,13.5 Z"/></g>
<g><path style="opacity:1" fill="#1c8b3b" d="M 151.5,44.5 C 152.75,44.5774 153.583,45.244 154,46.5C 155.124,49.4424 155.458,52.4424 155,55.5C 153.901,52.1363 152.401,48.9696 150.5,46C 151.056,45.6174 151.389,45.1174 151.5,44.5 Z"/></g>
<g><path style="opacity:1" fill="#d70716" d="M 98.5,47.5 C 140.721,45.5832 167.221,64.9165 178,105.5C 181.611,141.128 167.445,166.628 135.5,182C 99.5158,193.74 70.6825,184.24 49,153.5C 31.9223,118.79 37.4223,88.2903 65.5,62C 75.6033,54.9179 86.6033,50.0846 98.5,47.5 Z"/></g>
<g><path style="opacity:1" fill="#2a9247" d="M 81.5,32.5 C 82.4959,32.4142 83.3292,32.7476 84,33.5C 84.7369,41.0907 81.2369,44.2573 73.5,43C 70.1662,41.6686 67.1662,39.8353 64.5,37.5C 64.6667,37.1667 64.8333,36.8333 65,36.5C 68.5575,39.8693 72.7241,41.3693 77.5,41C 81.9776,39.5484 83.3109,36.7151 81.5,32.5 Z"/></g>
<g><path style="opacity:1" fill="#2f9349" d="M 126.5,25.5 C 126.735,24.9033 127.235,24.5699 128,24.5C 133.894,26.1314 139.728,27.9648 145.5,30C 147.333,30.5 148.5,31.6667 149,33.5C 149.29,31.9559 149.956,30.6226 151,29.5C 151.304,31.4405 152.137,33.1072 153.5,34.5C 152.47,34.5545 151.303,34.8878 150,35.5C 148.088,39.6597 145.921,43.6597 143.5,47.5C 143.167,47.1667 142.833,46.8333 142.5,46.5C 145.196,42.4702 146.696,38.1369 147,33.5C 145.604,31.4732 143.938,31.1398 142,32.5C 140.529,36.5811 138.862,40.5811 137,44.5C 136.529,42.7536 135.862,41.087 135,39.5C 132.767,37.2669 130.6,35.1003 128.5,33C 128.905,32.0546 129.572,31.3879 130.5,31C 133.833,30.6667 137.167,30.3333 140.5,30C 135.897,28.1927 131.23,26.6927 126.5,25.5 Z"/></g>
<g><path style="opacity:1" fill="#2c9043" d="M 154.5,42.5 C 152.891,37.7902 154.557,36.4569 159.5,38.5C 162.42,41.5712 161.92,43.9045 158,45.5C 156.358,45.0222 155.191,44.0222 154.5,42.5 Z"/></g>
<g><path style="opacity:1" fill="#e8f4ed" d="M 154.5,42.5 C 155.048,39.9162 156.715,38.9162 159.5,39.5C 159.5,40.5 159.5,41.5 159.5,42.5C 157.833,42.5 156.167,42.5 154.5,42.5 Z"/></g>
<g><path style="opacity:1" fill="#fafdfb" d="M 132.5,34.5 C 139.315,31.969 140.815,33.6356 137,39.5C 135.951,37.3825 134.451,35.7158 132.5,34.5 Z"/></g>
<g><path style="opacity:1" fill="#f1faf5" d="M 104.5,17.5 C 107.168,17.8337 109.168,19.1671 110.5,21.5C 107.707,22.9547 105.374,22.4547 103.5,20C 99.3123,19.8238 95.3123,19.3238 91.5,18.5C 95.7685,17.6274 100.102,17.2941 104.5,17.5 Z"/></g>
<g><path style="opacity:1" fill="#7fbc90" d="M 96.5,15.5 C 99.1667,16.1667 101.833,16.8333 104.5,17.5C 100.102,17.2941 95.7685,17.6274 91.5,18.5C 92.6594,16.7497 94.326,15.7497 96.5,15.5 Z"/></g>
<g><path style="opacity:1" fill="#2d9045" d="M 42.5,60.5 C 41.2438,60.5386 40.2438,60.0386 39.5,59C 40.9976,58.4153 41.9976,58.9153 42.5,60.5 Z"/></g>
<g><path style="opacity:1" fill="#2c9145" d="M 53.5,53.5 C 55.9639,56.066 55.6305,58.566 52.5,61C 48.8632,63.1451 45.5298,62.9784 42.5,60.5C 48.5725,61.7382 52.2392,59.4048 53.5,53.5 Z"/></g>
<g><path style="opacity:1" fill="#feee02" d="M 69.5,63.5 C 73.1473,63.6216 75.9806,65.2882 78,68.5C 78.779,67.2718 79.779,66.2718 81,65.5C 82.6784,67.514 84.1784,69.6807 85.5,72C 87.1341,72.4935 88.8008,72.6602 90.5,72.5C 90.5,71.5 90.5,70.5 90.5,69.5C 92.9115,69.1367 94.4115,70.1367 95,72.5C 95.4992,77.1548 95.6658,81.8215 95.5,86.5C 99.203,86.9071 102.87,87.5737 106.5,88.5C 116.476,87.3716 126.476,86.8716 136.5,87C 139.772,87.4365 141.439,89.2699 141.5,92.5C 140.5,92.5 139.5,92.5 138.5,92.5C 138.684,96.0794 138.017,99.4127 136.5,102.5C 135.5,102.5 134.5,102.5 133.5,102.5C 133.67,103.822 133.337,104.989 132.5,106C 121.912,107.534 118.746,113.034 123,122.5C 125.874,123.532 127.374,125.532 127.5,128.5C 131.319,128.528 132.319,126.862 130.5,123.5C 130.703,121.792 131.536,120.459 133,119.5C 133.494,117.866 133.66,116.199 133.5,114.5C 135.792,114.244 137.959,114.577 140,115.5C 141.94,119.943 142.94,124.61 143,129.5C 144,131.167 145,132.833 146,134.5C 147.502,143.507 148.002,152.507 147.5,161.5C 146.167,160.5 144.833,159.5 143.5,158.5C 141.833,158.833 140.833,159.833 140.5,161.5C 142.506,165.306 143.672,169.306 144,173.5C 140.735,168.633 137.735,163.633 135,158.5C 134.349,156.765 134.515,155.098 135.5,153.5C 134.103,151.018 133.269,148.352 133,145.5C 131.139,143.112 129.806,140.446 129,137.5C 127.649,135.981 126.149,134.648 124.5,133.5C 124.006,136.33 122.339,137.663 119.5,137.5C 117.219,136.008 114.885,134.841 112.5,134C 118.24,142.869 115.907,148.536 105.5,151C 103.559,151.743 101.726,151.576 100,150.5C 98.9661,147.014 97.6328,143.681 96,140.5C 96.0318,143.841 96.5318,147.174 97.5,150.5C 97.1667,151.167 96.8333,151.833 96.5,152.5C 95.6965,149.56 94.3631,146.893 92.5,144.5C 91.914,144.709 91.414,145.043 91,145.5C 90.2585,148.562 90.4252,151.562 91.5,154.5C 89.4902,156.171 87.1569,156.838 84.5,156.5C 83.3816,153.822 83.3816,151.155 84.5,148.5C 81.8114,141.809 80.8114,134.975 81.5,128C 78.1185,127.278 77.1185,125.445 78.5,122.5C 76.766,121.326 75.766,119.66 75.5,117.5C 77.0881,114.068 77.7547,110.401 77.5,106.5C 71.9257,106.967 67.9257,104.801 65.5,100C 65.6118,96.5996 67.2785,94.4329 70.5,93.5C 71.2458,92.2638 71.5792,90.9305 71.5,89.5C 73.8568,89.6633 76.1902,89.4966 78.5,89C 79.1383,87.2933 79.1383,85.46 78.5,83.5C 76.4727,83.6621 74.4727,83.4955 72.5,83C 70.8626,80.6898 68.696,79.1898 66,78.5C 65.3836,73.3983 67.2169,69.3983 71.5,66.5C 70.3881,65.7348 69.7214,64.7348 69.5,63.5 Z"/></g>
<g><path style="opacity:1" fill="#289044" d="M 96.5,15.5 C 101.121,14.9927 105.454,15.826 109.5,18C 111.238,20.7127 113.572,22.7127 116.5,24C 115.207,24.49 113.873,24.6567 112.5,24.5C 111.833,44.5 111.167,44.5 110.5,24.5C 108.143,24.3367 105.81,24.5034 103.5,25C 104.356,29.9003 104.523,35.067 104,40.5C 103.196,39.1955 102.029,38.5288 100.5,38.5C 97.5358,39.4718 94.5358,39.6385 91.5,39C 90.4238,37.2739 90.2571,35.4406 91,33.5C 91.3095,34.7659 91.8095,35.9326 92.5,37C 95.8168,37.4983 99.1501,37.665 102.5,37.5C 102.875,34.6035 102.375,31.9368 101,29.5C 97.8333,30.6667 97.6667,32.1667 100.5,34C 99.0953,35.2692 97.4286,35.7692 95.5,35.5C 95.2471,33.1727 95.9137,31.1727 97.5,29.5C 97.1667,29.1667 96.8333,28.8333 96.5,28.5C 95.2776,30.9783 93.2776,31.9783 90.5,31.5C 90.2965,29.6096 90.9632,28.1096 92.5,27C 95.1698,26.4574 97.6698,26.9574 100,28.5C 102.341,27.9931 102.841,26.8265 101.5,25C 86.1783,25.6628 72.1783,30.3295 59.5,39C 62.1667,43 64.8333,47 67.5,51C 67.1667,51.1667 66.8333,51.3333 66.5,51.5C 63.8154,48.8103 61.4821,45.8103 59.5,42.5C 56.5153,41.1299 53.8486,41.6299 51.5,44C 49.5,46 47.5,48 45.5,50C 48.4623,50.0901 50.7957,48.7568 52.5,46C 53.7932,45.51 55.1266,45.3433 56.5,45.5C 56.0695,48.8621 57.0695,51.6954 59.5,54C 56.5098,53.5213 54.5098,51.6879 53.5,48.5C 50.9717,50.8738 47.9717,51.8738 44.5,51.5C 44.2486,57.9872 45.5819,58.6538 48.5,53.5C 50.2985,52.2121 51.9652,52.2121 53.5,53.5C 50.8444,55.1498 48.1777,56.8164 45.5,58.5C 44.5581,58.3918 43.7247,58.0585 43,57.5C 42.6667,56.1667 42.3333,54.8333 42,53.5C 38.6468,55.8076 36.6468,58.8076 36,62.5C 39.5662,65.6993 43.3996,68.5326 47.5,71C 45.3921,71.3599 43.3921,72.0266 41.5,73C 39.9961,76.3441 37.9961,79.3441 35.5,82C 33.3646,82.6347 31.3646,82.3014 29.5,81C 31.1667,80.6667 32.8333,80.3333 34.5,80C 36.4456,76.1193 39.1123,72.7859 42.5,70C 40.4315,67.4657 37.7648,66.2991 34.5,66.5C 35.0053,69.8411 35.1719,73.1745 35,76.5C 34.6667,76.8333 34.3333,77.1667 34,77.5C 33.5776,75.5743 32.4109,74.5743 30.5,74.5C 28.9172,79.7925 27.5838,79.6258 26.5,74C 27.6362,68.5293 30.9696,65.5293 36.5,65C 34.5,63.6667 32.5,62.3333 30.5,61C 36.0669,57.7712 40.7336,53.4379 44.5,48C 59.9529,33.8486 79.6196,25.182 103.5,22C 99.5,21.6667 95.5,21.3333 91.5,21C 90.2264,20.0228 90.2264,19.1894 91.5,18.5C 95.3123,19.3238 99.3123,19.8238 103.5,20C 105.374,22.4547 107.707,22.9547 110.5,21.5C 109.168,19.1671 107.168,17.8337 104.5,17.5C 101.833,16.8333 99.1667,16.1667 96.5,15.5 Z"/></g>
<g><path style="opacity:1" fill="#138c3b" d="M 81.5,32.5 C 80.0222,32.238 78.6888,32.5713 77.5,33.5C 78.6804,37.672 77.1804,39.0054 73,37.5C 72.1651,33.294 73.9984,31.294 78.5,31.5C 79.7261,31.5195 80.7261,31.8529 81.5,32.5 Z"/></g>
<g><path style="opacity:1" fill="#e3f2e9" d="M 30.5,74.5 C 29.5028,74.5299 28.8361,74.0299 28.5,73C 29.0362,70.76 30.2029,68.9266 32,67.5C 32.815,70.1982 32.315,72.5315 30.5,74.5 Z"/></g>
<g><path style="opacity:1" fill="#249043" d="M 164.5,41.5 C 172.508,46.0082 178.674,52.3416 183,60.5C 185.173,57.723 185.673,57.8897 184.5,61C 192.637,71.9004 197.97,84.0671 200.5,97.5C 200.41,99.2278 200.077,100.894 199.5,102.5C 203.413,105.62 203.413,108.786 199.5,112C 201.167,112.333 202.833,112.667 204.5,113C 203.107,114.171 202.273,115.671 202,117.5C 201.517,116.552 201.351,115.552 201.5,114.5C 196.489,114.666 191.489,114.499 186.5,114C 189.976,112.746 193.642,112.079 197.5,112C 200.335,110.56 200.835,108.727 199,106.5C 197.194,110.155 195.361,110.321 193.5,107C 193.735,106.127 194.069,105.293 194.5,104.5C 191.5,98.8333 192.833,97.5 198.5,100.5C 198.881,93.9323 197.548,87.599 194.5,81.5C 192.243,80.4362 190.243,80.9362 188.5,83C 191.5,84.6667 193.833,87 195.5,90C 194.929,91.2051 194.262,92.3717 193.5,93.5C 192.228,92.954 190.894,92.6207 189.5,92.5C 187.079,93.0721 184.746,93.5721 182.5,94C 185.226,91.9702 188.226,90.4702 191.5,89.5C 189.919,86.8753 187.585,85.542 184.5,85.5C 184.238,84.0222 184.571,82.6888 185.5,81.5C 194.42,77.8918 194.087,74.5585 184.5,71.5C 179.953,71.8726 177.786,74.2059 178,78.5C 180.658,77.306 181.824,78.306 181.5,81.5C 176.346,80.3881 175.18,77.3881 178,72.5C 178.903,71.2986 180.069,70.4652 181.5,70C 184.097,69.719 186.43,69.5523 188.5,69.5C 187.079,66.9906 185.412,64.6572 183.5,62.5C 179.422,65.6225 175.255,68.6225 171,71.5C 170.333,70.8333 170.333,70.1667 171,69.5C 173.5,67.6667 176,65.8333 178.5,64C 181.24,61.0211 181.073,58.1878 178,55.5C 174.633,59.2026 170.966,62.536 167,65.5C 167.72,62.7348 169.387,60.4015 172,58.5C 172.774,56.597 172.44,54.9304 171,53.5C 170.333,54.1667 169.667,54.8333 169,55.5C 169.225,52.1537 167.892,49.8204 165,48.5C 162.812,49.0593 162.146,50.3927 163,52.5C 164.88,51.0705 166.38,51.4038 167.5,53.5C 166.652,55.2828 165.319,55.7828 163.5,55C 159.049,51.0576 159.549,48.2242 165,46.5C 168.082,46.7485 169.582,48.4151 169.5,51.5C 172.292,51.4521 174.125,52.7854 175,55.5C 175.5,55 176,54.5 176.5,54C 172.247,49.9173 168.247,45.7507 164.5,41.5 Z"/></g>
<g><path style="opacity:1" fill="#1c8c3c" d="M 24.5,85.5 C 23.2627,83.9032 21.596,82.7365 19.5,82C 20.9308,81.5348 22.0975,80.7014 23,79.5C 23.2492,80.624 23.7492,81.624 24.5,82.5C 28.8741,84.2359 33.2075,86.0692 37.5,88C 33.0824,87.8024 28.7491,86.969 24.5,85.5 Z"/></g>
<g><path style="opacity:1" fill="#2f944b" d="M 24.5,85.5 C 21.8562,87.516 21.0228,90.1827 22,93.5C 25.0571,94.8523 25.8904,94.019 24.5,91C 25.0069,88.6587 26.1735,88.1587 28,89.5C 28.3403,94.8222 25.8403,96.9888 20.5,96C 16.9555,90.4958 18.2888,86.9958 24.5,85.5 Z"/></g>
<g><path style="opacity:1" fill="#289247" d="M 17.5,97.5 C 18.404,98.209 18.7373,99.209 18.5,100.5C 23.2492,101.35 27.9158,102.516 32.5,104C 28.5159,103.814 24.5159,103.814 20.5,104C 17.2352,106.754 16.7352,109.921 19,113.5C 19.7739,106.409 22.2739,105.742 26.5,111.5C 26.1924,112.308 25.6924,112.975 25,113.5C 20.839,107.932 19.5057,108.599 21,115.5C 19.0624,116.86 17.3957,116.527 16,114.5C 14.5568,109.788 15.7235,105.955 19.5,103C 17.3921,102.64 15.3921,101.973 13.5,101C 15.5503,100.584 16.8836,99.4171 17.5,97.5 Z"/></g>
<g><path style="opacity:1" fill="#d51015" d="M 197.5,127.5 C 198.043,127.56 198.376,127.893 198.5,128.5C 197.833,130.5 197.167,132.5 196.5,134.5C 199.037,136.267 201.703,137.767 204.5,139C 201.518,139.498 198.518,139.665 195.5,139.5C 196.262,149.312 194.929,149.812 191.5,141C 188.89,140.776 186.39,141.276 184,142.5C 183.833,142.167 183.667,141.833 183.5,141.5C 185.626,140.099 187.293,138.266 188.5,136C 183.756,128.955 184.923,127.788 192,132.5C 194.316,131.35 196.15,129.683 197.5,127.5 Z"/></g>
<g><path style="opacity:1" fill="#d51b1b" d="M 28.5,127.5 C 29.0904,129.99 29.257,132.657 29,135.5C 37.8123,138.929 37.3123,140.262 27.5,139.5C 27.8201,149.819 26.1535,150.153 22.5,140.5C 12.655,143.907 11.9883,142.574 20.5,136.5C 18.9776,133.808 17.8109,131.141 17,128.5C 19.0859,130.249 21.4192,131.583 24,132.5C 25.6843,130.983 27.1843,129.317 28.5,127.5 Z"/></g>
<g><path style="opacity:1" fill="#d61d1c" d="M 182.5,159.5 C 182.899,162.057 183.232,164.723 183.5,167.5C 191.277,170.498 190.61,171.831 181.5,171.5C 181.831,180.61 180.498,181.277 177.5,173.5C 174.546,172.853 171.546,172.686 168.5,173C 170.976,171.691 172.976,169.858 174.5,167.5C 168.833,159.833 169.833,158.833 177.5,164.5C 179.521,163.145 181.188,161.479 182.5,159.5 Z"/></g>
<g><path style="opacity:1" fill="#d61d1c" d="M 42.5,159.5 C 42.8985,162.057 43.2319,164.723 43.5,167.5C 51.277,170.498 50.6103,171.831 41.5,171.5C 41.8429,180.562 40.5096,181.229 37.5,173.5C 34.5182,172.668 31.5182,172.501 28.5,173C 30.9757,171.691 32.9757,169.858 34.5,167.5C 28.589,159.622 29.589,158.622 37.5,164.5C 39.5212,163.145 41.1879,161.479 42.5,159.5 Z"/></g>
<g><path style="opacity:1" fill="#2e934a" d="M 116.5,209.5 C 113.834,209.067 111.168,208.567 108.5,208C 107.643,207.311 106.977,206.478 106.5,205.5C 110,203.385 113.667,201.552 117.5,200C 112.177,199.501 106.844,199.334 101.5,199.5C 101.248,204.519 100.748,209.519 100,214.5C 97.3585,209.856 93.5252,206.689 88.5,205C 87.8333,204 87.1667,203 86.5,202C 90.8244,201.13 95.1577,200.297 99.5,199.5C 94.4994,197.992 89.4994,196.826 84.5,196C 82.8666,200.563 81.0333,205.063 79,209.5C 78.6258,208.584 78.1258,207.75 77.5,207C 79.1596,204.688 79.9929,202.188 80,199.5C 79.196,198.196 78.0293,197.529 76.5,197.5C 73.8684,198.44 71.2017,198.607 68.5,198C 66.4848,196.445 66.1515,194.611 67.5,192.5C 68.3857,193.325 68.719,194.325 68.5,195.5C 75.701,195.054 76.3677,192.554 70.5,188C 69.8132,186.838 69.6466,185.672 70,184.5C 81.3645,194.121 94.5311,198.455 109.5,197.5C 115.767,197.649 121.933,196.983 128,195.5C 129.107,195.585 130.107,195.919 131,196.5C 131,195.167 131,193.833 131,192.5C 132.388,193.554 133.888,193.72 135.5,193C 140.226,190.888 144.726,188.388 149,185.5C 150.998,189.978 153.832,194.478 157.5,199C 156.5,199.667 155.5,199.667 154.5,199C 152.789,196.411 150.955,193.911 149,191.5C 142.801,196.386 143.968,198.553 152.5,198C 138.177,203.04 136.344,200.54 147,190.5C 147.667,189.833 147.667,189.167 147,188.5C 142.515,191.321 138.015,193.987 133.5,196.5C 135.363,200.755 137.03,205.088 138.5,209.5C 138.167,209.833 137.833,210.167 137.5,210.5C 135.229,206.553 133.229,202.387 131.5,198C 127.428,197.342 123.428,197.675 119.5,199C 122.512,199.78 125.345,200.947 128,202.5C 128.987,206.506 127.487,208.339 123.5,208C 122.354,205.443 123.354,204.11 126.5,204C 124.75,202.681 122.75,202.181 120.5,202.5C 120.816,206.525 120.983,210.525 121,214.5C 119.634,212.638 118.134,210.972 116.5,209.5 Z"/></g>
<g><path style="opacity:1" fill="#dbeee2" d="M 75.5,190.5 C 78.4087,191.446 80.742,193.113 82.5,195.5C 82.0261,198.7 81.0261,199.033 79.5,196.5C 78.3112,195.571 76.9778,195.238 75.5,195.5C 75.5,193.833 75.5,192.167 75.5,190.5 Z"/></g>
<g><path style="opacity:1" fill="#3b9853" d="M 147.5,200.5 C 148.5,200.5 149.5,200.5 150.5,200.5C 150.833,203.5 149.5,204.833 146.5,204.5C 146.433,203.041 146.766,201.708 147.5,200.5 Z"/></g>
<g><path style="opacity:1" fill="#f0f9f3" d="M 93.5,202.5 C 95.5,202.5 97.5,202.5 99.5,202.5C 99.477,204.927 98.977,207.26 98,209.5C 96.1266,207.291 93.96,205.458 91.5,204C 92.4158,203.722 93.0825,203.222 93.5,202.5 Z"/></g>
<g><path style="opacity:1" fill="#e4f3ea" d="M 116.5,209.5 C 115.025,207.59 113.025,206.424 110.5,206C 112.818,204.007 115.484,202.841 118.5,202.5C 119.01,205.388 118.344,207.721 116.5,209.5 Z"/></g>
<g><path style="opacity:1" fill="#188935" d="M 89.5,208.5 C 91.3464,208.222 92.6798,208.889 93.5,210.5C 92.3112,211.429 90.9778,211.762 89.5,211.5C 89.5,210.5 89.5,209.5 89.5,208.5 Z"/></g>
</svg>
