<?xml version="1.0" encoding="UTF-8"?>
<!DOCTYPE svg PUBLIC "-//W3C//DTD SVG 1.1//EN" "http://www.w3.org/Graphics/SVG/1.1/DTD/svg11.dtd">
<svg xmlns="http://www.w3.org/2000/svg" version="1.1" width="250px" height="272px" style="shape-rendering:geometricPrecision; text-rendering:geometricPrecision; image-rendering:optimizeQuality; fill-rule:evenodd; clip-rule:evenodd" xmlns:xlink="http://www.w3.org/1999/xlink">
<g><path style="opacity:0.885" fill="#c1c0c0" d="M 202.5,170.5 C 202.5,170.833 202.5,171.167 202.5,171.5C 196.198,164.357 190.031,157.024 184,149.5C 165.715,124.77 146.548,99.9363 126.5,75C 124.299,74.1751 122.466,74.6751 121,76.5C 115.327,83.2032 110.16,90.2032 105.5,97.5C 104.833,97.5 104.5,97.8333 104.5,98.5C 92.5305,113.313 80.6971,128.313 69,143.5C 67.5295,144.267 66.0295,144.933 64.5,145.5C 63.1697,143.119 63.3364,140.786 65,138.5C 79,115.833 93,93.1667 107,70.5C 107.021,62.4161 110.854,57.4161 118.5,55.5C 118.334,50.8215 118.501,46.1548 119,41.5C 122.667,38.8333 126.333,38.8333 130,41.5C 130.499,46.1548 130.666,50.8215 130.5,55.5C 138.146,57.4161 141.979,62.4161 142,70.5C 156,93.1667 170,115.833 184,138.5C 185.202,140.677 185.702,143.011 185.5,145.5C 187.592,145.561 189.092,146.561 190,148.5C 194.022,155.996 198.189,163.329 202.5,170.5 Z M 108.5,99.5 C 113.458,100.396 117.624,102.729 121,106.5C 121.667,107.5 121.667,108.5 121,109.5C 119.471,110.729 118.304,112.229 117.5,114C 115.109,114.287 112.776,114.787 110.5,115.5C 107.464,110.47 106.797,105.137 108.5,99.5 Z M 136.5,99.5 C 137.833,99.5 139.167,99.5 140.5,99.5C 141.625,104.562 141.292,109.562 139.5,114.5C 136.813,114.664 134.146,114.497 131.5,114C 130.072,111.815 128.405,109.815 126.5,108C 129.438,104.551 132.771,101.718 136.5,99.5 Z M 123.5,110.5 C 129.053,114.132 128.386,115.299 121.5,114C 122.823,113.184 123.489,112.017 123.5,110.5 Z M 118.5,117.5 C 126.459,115.327 131.792,117.994 134.5,125.5C 132.085,133.579 126.919,136.245 119,133.5C 117.247,130.995 115.747,128.329 114.5,125.5C 116.297,123.045 117.63,120.378 118.5,117.5 Z M 133.5,118.5 C 135.093,117.133 136.426,117.466 137.5,119.5C 137.192,120.308 136.692,120.975 136,121.5C 135.623,120.058 134.79,119.058 133.5,118.5 Z M 110.5,119.5 C 114.613,117.967 115.113,118.633 112,121.5C 111.722,120.584 111.222,119.918 110.5,119.5 Z M 141.5,118.5 C 159.668,122.453 160.001,127.119 142.5,132.5C 140.914,130.33 139.58,127.996 138.5,125.5C 139.702,123.22 140.702,120.886 141.5,118.5 Z M 103.5,119.5 C 107.482,119.382 109.815,121.382 110.5,125.5C 109.391,127.385 108.557,129.385 108,131.5C 102.027,132.285 96.8604,130.452 92.5,126C 95.651,122.8 99.3176,120.634 103.5,119.5 Z M 111.5,130.5 C 112.995,130.415 113.995,131.081 114.5,132.5C 111.222,134.151 110.222,133.485 111.5,130.5 Z M 135.5,130.5 C 136.922,130.75 137.922,131.583 138.5,133C 135.457,133.862 134.457,133.029 135.5,130.5 Z M 122.5,138.5 C 123.708,137.218 125.042,137.218 126.5,138.5C 125.135,141.125 123.802,141.125 122.5,138.5 Z"/></g>
<g><path style="opacity:0.378" fill="#110e08" d="M 123.5,1.5 C 163.309,18.1649 196.143,43.8316 222,78.5C 228.276,88.0501 233.776,98.0501 238.5,108.5C 226.167,109.833 213.833,109.833 201.5,108.5C 193.454,91.2707 182.121,76.4374 167.5,64C 154.49,52.8246 140.157,43.6579 124.5,36.5C 93.8458,50.747 69.3458,72.0804 51,100.5C 49.5584,103.05 48.3917,105.716 47.5,108.5C 35.1667,109.833 22.8333,109.833 10.5,108.5C 24.3595,79.1325 44.0261,54.2991 69.5,34C 86.1354,20.8511 104.135,10.0178 123.5,1.5 Z"/></g>
<g><path style="opacity:1" fill="#d2ad36" d="M 235.5,106.5 C 225.013,107.494 214.346,107.828 203.5,107.5C 189.922,81.084 170.255,60.2507 144.5,45C 137.954,41.2277 131.288,37.7277 124.5,34.5C 98.1069,46.3891 75.9402,63.7224 58,86.5C 53.2902,93.2653 49.1235,100.265 45.5,107.5C 34.6536,107.828 23.9869,107.494 13.5,106.5C 24.6953,82.4489 40.3619,61.6156 60.5,44C 79.3706,26.7245 100.704,13.2245 124.5,3.5C 167.307,21.802 201.474,50.4687 227,89.5C 230.372,94.9099 233.205,100.577 235.5,106.5 Z"/></g>
<g><path style="opacity:1" fill="#26983f" d="M 89.5,38.5 C 88.1667,38.5 86.8333,38.5 85.5,38.5C 85.9052,36.3502 86.4052,34.3502 87,32.5C 83.9105,34.4514 81.4105,36.9514 79.5,40C 81.957,43.9608 84.6237,47.7941 87.5,51.5C 86.277,52.6139 84.9437,52.7805 83.5,52C 80.9874,48.771 78.1541,45.9376 75,43.5C 73.0486,43.8877 71.5486,44.8877 70.5,46.5C 73.7392,49.9829 76.7392,53.6496 79.5,57.5C 77.9255,58.6309 76.2588,58.7975 74.5,58C 72.5951,56.1847 70.9284,54.1847 69.5,52C 67.3646,51.3653 65.3646,51.6986 63.5,53C 65.1341,53.4935 66.8008,53.6602 68.5,53.5C 68.5792,54.9305 68.2458,56.2638 67.5,57.5C 64.3548,59.4782 61.6881,61.9782 59.5,65C 58.2068,65.49 56.8734,65.6567 55.5,65.5C 55.6984,63.4247 55.8651,61.4247 56,59.5C 53.5521,61.9983 50.7187,63.4983 47.5,64C 50.2739,60.0383 53.9405,57.5383 58.5,56.5C 59.1669,51.341 62.1669,48.841 67.5,49C 66.1667,47.6667 64.8333,46.3333 63.5,45C 64.9931,43.6319 66.4931,43.4652 68,44.5C 69.9734,43.3601 71.8067,42.0267 73.5,40.5C 73.0233,39.5224 72.3567,38.6891 71.5,38C 73.5,37.6667 75.5,37.3333 77.5,37C 91.6164,25.2459 107.45,16.4126 125,10.5C 130.393,12.0713 135.393,14.4046 140,17.5C 140.249,16.376 140.749,15.376 141.5,14.5C 145.827,19.5185 151.16,23.3518 157.5,26C 162.789,29.6201 167.789,33.6201 172.5,38C 173.996,38.5074 175.163,38.0074 176,36.5C 177.117,37.9494 177.784,39.6161 178,41.5C 185.303,47.8016 192.303,54.4683 199,61.5C 199.916,66.4537 198.916,66.7871 196,62.5C 192.651,66.0158 189.151,69.3492 185.5,72.5C 184.369,70.9255 184.202,69.2588 185,67.5C 186.892,65.9458 188.392,64.1124 189.5,62C 189.37,60.9412 188.87,60.1079 188,59.5C 186.989,60.3366 185.822,60.67 184.5,60.5C 184.966,54.9631 182.633,52.6297 177.5,53.5C 181.356,53.712 183.356,56.0453 183.5,60.5C 177.29,59.4028 174.456,55.7361 175,49.5C 176.734,48.7511 178.567,48.2511 180.5,48C 179,46.5 177.5,45 176,43.5C 172.952,47.5918 169.452,51.2585 165.5,54.5C 164.369,52.9255 164.202,51.2588 165,49.5C 167.406,47.0167 169.573,44.35 171.5,41.5C 170.527,39.36 169.027,37.6933 167,36.5C 164,40.5 161,44.5 158,48.5C 156.916,47.3349 156.083,46.0016 155.5,44.5C 158.13,41.9086 159.63,38.9086 160,35.5C 159.586,35.0426 159.086,34.7093 158.5,34.5C 152.452,37.7326 147.619,36.3992 144,30.5C 143.333,29.1667 143.333,27.8333 144,26.5C 146.069,25.7362 148.236,25.2362 150.5,25C 148.333,23.8333 146.167,22.6667 144,21.5C 140.593,25.3022 137.926,29.6355 136,34.5C 134.764,33.6008 133.93,32.4341 133.5,31C 135.03,27.4393 136.697,23.9393 138.5,20.5C 136.493,17.6668 133.826,16.1668 130.5,16C 134.781,18.9733 134.281,20.8066 129,21.5C 128.818,24.2263 128.318,26.8929 127.5,29.5C 126.914,29.2907 126.414,28.9574 126,28.5C 125.825,24.789 125.325,21.1224 124.5,17.5C 123.692,17.8076 123.025,18.3076 122.5,19C 124.991,24.0246 123.325,27.358 117.5,29C 110.84,30.8292 105.507,28.9959 101.5,23.5C 99.3703,24.4672 97.3703,25.6338 95.5,27C 103.395,27.7827 104.395,30.7827 98.5,36C 100.763,35.976 103.097,35.8093 105.5,35.5C 107.712,35.4123 109.712,35.9123 111.5,37C 103.943,37.464 96.9431,39.6307 90.5,43.5C 88.3392,42.9649 86.3392,42.1316 84.5,41C 86.4913,40.6264 88.158,39.793 89.5,38.5 Z"/></g>
<g><path style="opacity:1" fill="#cdae36" d="M 89.5,38.5 C 91.5958,36.5667 93.0958,34.2334 94,31.5C 95.0113,30.6634 96.1779,30.33 97.5,30.5C 96.5363,34.7971 93.8696,37.4638 89.5,38.5 Z"/></g>
<g><path style="opacity:1" fill="#9fa938" d="M 147.5,28.5 C 151.293,28.4404 153.459,30.1071 154,33.5C 151.806,31.635 149.64,29.9683 147.5,28.5 Z"/></g>
<g><path style="opacity:1" fill="#c6ad36" d="M 108.5,24.5 C 109.817,24.821 111.151,25.1543 112.5,25.5C 115.351,24.7133 118.017,23.88 120.5,23C 116.723,26.8528 112.723,27.3528 108.5,24.5 Z"/></g>
<g><path style="opacity:1" fill="#c5ae37" d="M 108.5,24.5 C 102.136,22.6433 102.136,21.3099 108.5,20.5C 108.5,21.8333 108.5,23.1667 108.5,24.5 Z"/></g>
<g><path style="opacity:1" fill="#d3af36" d="M 113.5,18.5 C 117.308,19.4388 117.308,20.7721 113.5,22.5C 112.708,21.3002 112.708,19.9669 113.5,18.5 Z"/></g>
<g><path style="opacity:1" fill="#bcac37" d="M 122.5,13.5 C 124.989,13.2978 127.323,13.7978 129.5,15C 127.965,15.4962 126.465,15.3295 125,14.5C 122.563,15.6542 120.063,16.1542 117.5,16C 119.315,15.2432 120.981,14.4098 122.5,13.5 Z"/></g>
<g><path style="opacity:1" fill="#cdae36" d="M 185.5,52.5 C 186.627,53.1217 187.627,53.955 188.5,55C 186.511,55.5192 185.511,54.6859 185.5,52.5 Z"/></g>
<g><path style="opacity:1" fill="#21973f" d="M 215.5,85.5 C 216.552,85.3505 217.552,85.5172 218.5,86C 216.285,90.3234 215.952,94.8234 217.5,99.5C 217.167,99.8333 216.833,100.167 216.5,100.5C 213.512,96.8382 209.846,95.8382 205.5,97.5C 204.167,96.5 204.167,95.5 205.5,94.5C 207.115,93.846 208.782,93.346 210.5,93C 205.952,88.2541 206.452,87.0874 212,89.5C 213.376,88.2949 214.542,86.9616 215.5,85.5 Z"/></g>
<g><path style="opacity:1" fill="#2a983f" d="M 30.5,85.5 C 33.0312,86.0303 35.0312,87.3637 36.5,89.5C 37.9684,87.6671 39.6351,87.3338 41.5,88.5C 40.376,89.914 39.376,91.414 38.5,93C 40.9969,93.4117 42.9969,94.5784 44.5,96.5C 41.5535,97.3214 38.5535,97.8214 35.5,98C 34.354,98.6449 33.354,99.4783 32.5,100.5C 32.9184,95.522 32.2517,90.522 30.5,85.5 Z"/></g>
<g><path style="opacity:0.664" fill="#db5a9c" d="M 104.5,98.5 C 105.167,98.5 105.5,98.1667 105.5,97.5C 108.073,96.4448 110.739,96.2782 113.5,97C 117.579,99.0751 121.079,101.908 124,105.5C 128.392,99.3852 134.226,96.5519 141.5,97C 143.974,99.0411 144.974,101.708 144.5,105C 144.548,108.509 143.881,111.843 142.5,115C 148.195,116.006 153.361,118.173 158,121.5C 160.423,126.161 159.256,129.661 154.5,132C 150.608,133.64 146.608,134.973 142.5,136C 145.86,141.886 146.194,147.886 143.5,154C 141.305,155.373 138.971,155.706 136.5,155C 131.973,152.904 127.973,150.071 124.5,146.5C 120.78,151.023 116.113,154.023 110.5,155.5C 108.303,155.152 106.47,154.152 105,152.5C 104.026,146.813 104.526,141.313 106.5,136C 101.979,135.271 97.6457,133.937 93.5,132C 88.1667,128 88.1667,124 93.5,120C 97.3072,118.119 101.307,116.953 105.5,116.5C 104.837,112.51 104.17,108.51 103.5,104.5C 103.672,102.452 104.005,100.452 104.5,98.5 Z M 108.5,99.5 C 106.797,105.137 107.464,110.47 110.5,115.5C 112.776,114.787 115.109,114.287 117.5,114C 118.304,112.229 119.471,110.729 121,109.5C 121.667,108.5 121.667,107.5 121,106.5C 117.624,102.729 113.458,100.396 108.5,99.5 Z M 136.5,99.5 C 132.771,101.718 129.438,104.551 126.5,108C 128.405,109.815 130.072,111.815 131.5,114C 134.146,114.497 136.813,114.664 139.5,114.5C 141.292,109.562 141.625,104.562 140.5,99.5C 139.167,99.5 137.833,99.5 136.5,99.5 Z M 123.5,110.5 C 123.489,112.017 122.823,113.184 121.5,114C 128.386,115.299 129.053,114.132 123.5,110.5 Z M 118.5,117.5 C 117.63,120.378 116.297,123.045 114.5,125.5C 115.747,128.329 117.247,130.995 119,133.5C 126.919,136.245 132.085,133.579 134.5,125.5C 131.792,117.994 126.459,115.327 118.5,117.5 Z M 133.5,118.5 C 134.79,119.058 135.623,120.058 136,121.5C 136.692,120.975 137.192,120.308 137.5,119.5C 136.426,117.466 135.093,117.133 133.5,118.5 Z M 110.5,119.5 C 111.222,119.918 111.722,120.584 112,121.5C 115.113,118.633 114.613,117.967 110.5,119.5 Z M 141.5,118.5 C 140.702,120.886 139.702,123.22 138.5,125.5C 139.58,127.996 140.914,130.33 142.5,132.5C 160.001,127.119 159.668,122.453 141.5,118.5 Z M 103.5,119.5 C 99.3176,120.634 95.651,122.8 92.5,126C 96.8604,130.452 102.027,132.285 108,131.5C 108.557,129.385 109.391,127.385 110.5,125.5C 109.815,121.382 107.482,119.382 103.5,119.5 Z M 111.5,130.5 C 110.222,133.485 111.222,134.151 114.5,132.5C 113.995,131.081 112.995,130.415 111.5,130.5 Z M 135.5,130.5 C 134.457,133.029 135.457,133.862 138.5,133C 137.922,131.583 136.922,130.75 135.5,130.5 Z M 109.5,136.5 C 115.128,136.181 119.461,138.348 122.5,143C 109.713,156.169 105.38,154.003 109.5,136.5 Z M 133.5,136.5 C 135.604,136.201 137.604,136.534 139.5,137.5C 141.217,141.997 141.884,146.663 141.5,151.5C 135.86,151.429 131.36,149.096 128,144.5C 128.386,140.93 130.219,138.263 133.5,136.5 Z M 122.5,138.5 C 123.802,141.125 125.135,141.125 126.5,138.5C 125.042,137.218 123.708,137.218 122.5,138.5 Z"/></g>
<g><path style="opacity:1" fill="#5a4d22" d="M 13.5,106.5 C 23.9869,107.494 34.6536,107.828 45.5,107.5C 34.6596,108.824 23.6596,108.824 12.5,107.5C 12.6236,106.893 12.9569,106.56 13.5,106.5 Z"/></g>
<g><path style="opacity:1" fill="#5a4d22" d="M 235.5,106.5 C 236.043,106.56 236.376,106.893 236.5,107.5C 225.34,108.824 214.34,108.824 203.5,107.5C 214.346,107.828 225.013,107.494 235.5,106.5 Z"/></g>
<g><path style="opacity:0.891" fill="#060707" d="M 46.5,170.5 C 46.5,170.833 46.5,171.167 46.5,171.5C 47.2421,175.186 48.7421,175.853 51,173.5C 58.0868,175.98 65.2534,177.813 72.5,179C 65.4503,176.262 58.4503,173.429 51.5,170.5C 51.8869,169.28 52.7202,168.613 54,168.5C 59.7382,170.97 65.5716,172.803 71.5,174C 65.489,171.661 59.8223,168.828 54.5,165.5C 54.8076,164.692 55.3076,164.025 56,163.5C 61.631,166.485 67.4643,168.651 73.5,170C 68.2784,167.222 62.9451,164.722 57.5,162.5C 64.2911,157.598 71.2911,152.932 78.5,148.5C 93.5953,156.381 108.929,163.715 124.5,170.5C 140.071,163.715 155.405,156.381 170.5,148.5C 177.5,153 184.5,157.5 191.5,162C 186.202,164.66 180.869,167.327 175.5,170C 181.536,168.651 187.369,166.485 193,163.5C 193.692,164.025 194.192,164.692 194.5,165.5C 189.178,168.828 183.511,171.661 177.5,174C 183.428,172.803 189.262,170.97 195,168.5C 196.28,168.613 197.113,169.28 197.5,170.5C 190.55,173.429 183.55,176.262 176.5,179C 183.61,177.914 190.61,176.08 197.5,173.5C 200.017,176.074 201.684,175.408 202.5,171.5C 202.5,171.167 202.5,170.833 202.5,170.5C 206.85,161.776 209.183,152.442 209.5,142.5C 208.864,132.988 207.198,123.654 204.5,114.5C 216.505,114.333 228.505,114.5 240.5,115C 253.689,148.639 249.856,180.139 229,209.5C 212.09,227.373 191.256,237.206 166.5,239C 138.167,239.667 109.833,239.667 81.5,239C 23.3445,230.514 -3.15547,197.014 2,138.5C 3.16106,130.352 5.32773,122.519 8.5,115C 20.4954,114.5 32.4954,114.333 44.5,114.5C 39.7709,129.334 38.9375,144.334 42,159.5C 43.0377,163.468 44.5377,167.135 46.5,170.5 Z M 118.5,117.5 C 117.63,120.378 116.297,123.045 114.5,125.5C 115.747,128.329 117.247,130.995 119,133.5C 126.919,136.245 132.085,133.579 134.5,125.5C 131.792,117.994 126.459,115.327 118.5,117.5 Z M 133.5,118.5 C 134.79,119.058 135.623,120.058 136,121.5C 136.692,120.975 137.192,120.308 137.5,119.5C 136.426,117.466 135.093,117.133 133.5,118.5 Z M 110.5,119.5 C 111.222,119.918 111.722,120.584 112,121.5C 115.113,118.633 114.613,117.967 110.5,119.5 Z M 141.5,118.5 C 140.702,120.886 139.702,123.22 138.5,125.5C 139.58,127.996 140.914,130.33 142.5,132.5C 160.001,127.119 159.668,122.453 141.5,118.5 Z M 103.5,119.5 C 99.3176,120.634 95.651,122.8 92.5,126C 96.8604,130.452 102.027,132.285 108,131.5C 108.557,129.385 109.391,127.385 110.5,125.5C 109.815,121.382 107.482,119.382 103.5,119.5 Z M 111.5,130.5 C 110.222,133.485 111.222,134.151 114.5,132.5C 113.995,131.081 112.995,130.415 111.5,130.5 Z M 135.5,130.5 C 134.457,133.029 135.457,133.862 138.5,133C 137.922,131.583 136.922,130.75 135.5,130.5 Z M 109.5,136.5 C 105.38,154.003 109.713,156.169 122.5,143C 119.461,138.348 115.128,136.181 109.5,136.5 Z M 133.5,136.5 C 130.219,138.263 128.386,140.93 128,144.5C 131.36,149.096 135.86,151.429 141.5,151.5C 141.884,146.663 141.217,141.997 139.5,137.5C 137.604,136.534 135.604,136.201 133.5,136.5 Z M 122.5,138.5 C 123.802,141.125 125.135,141.125 126.5,138.5C 125.042,137.218 123.708,137.218 122.5,138.5 Z M 77.5,152.5 C 92.2652,159.048 106.932,165.882 121.5,173C 122.806,178.446 122.806,183.946 121.5,189.5C 102.833,180.5 84.1667,171.5 65.5,162.5C 64.1667,161.833 64.1667,161.167 65.5,160.5C 69.5654,157.81 73.5654,155.143 77.5,152.5 Z M 140.5,167.5 C 136.5,169.97 132.334,172.303 128,174.5C 127.251,175.635 127.417,176.635 128.5,177.5C 129.192,176.975 129.692,176.308 130,175.5C 130.718,176.451 131.551,176.617 132.5,176C 131.304,175.346 131.304,174.846 132.5,174.5C 133.183,174.863 133.85,175.196 134.5,175.5C 132.605,177.098 130.438,178.432 128,179.5C 127.251,180.635 127.417,181.635 128.5,182.5C 131.379,180.768 134.546,178.768 138,176.5C 138.383,177.056 138.883,177.389 139.5,177.5C 137.276,179.431 134.776,181.098 132,182.5C 130.56,183.148 129.06,183.481 127.5,183.5C 127.238,184.978 127.571,186.311 128.5,187.5C 130.402,186.145 132.735,184.812 135.5,183.5C 136.75,183.423 137.583,182.756 138,181.5C 139.558,182.345 140.558,181.679 141,179.5C 141.414,179.957 141.914,180.291 142.5,180.5C 144.643,179.477 146.976,178.143 149.5,176.5C 152.616,175.107 155.616,173.441 158.5,171.5C 159.086,171.709 159.586,172.043 160,172.5C 161.333,171.167 162.667,169.833 164,168.5C 164.414,168.957 164.914,169.291 165.5,169.5C 167.149,168.294 168.649,166.961 170,165.5C 171.016,166.634 171.683,166.301 172,164.5C 172.718,165.451 173.551,165.617 174.5,165C 176,164.167 177.167,163 178,161.5C 178.893,162.711 179.726,162.711 180.5,161.5C 178.241,159.105 175.908,159.105 173.5,161.5C 173.721,160.265 174.388,159.265 175.5,158.5C 174.563,156.358 173.23,156.024 171.5,157.5C 171.5,156.5 171.5,155.5 171.5,154.5C 165.107,156.631 158.774,158.965 152.5,161.5C 158.16,158.003 164.16,155.003 170.5,152.5C 174.833,155.167 179.167,157.833 183.5,160.5C 184.833,161.167 184.833,161.833 183.5,162.5C 164.833,171.5 146.167,180.5 127.5,189.5C 126.337,184.198 126.171,178.864 127,173.5C 131.212,170.81 135.712,168.81 140.5,167.5 Z M 171.5,157.5 C 170.22,158.931 168.553,159.598 166.5,159.5C 166.369,158.761 166.536,158.094 167,157.5C 168.277,156.928 169.777,156.928 171.5,157.5 Z M 79.5,158.5 C 81.3797,158.229 82.713,158.896 83.5,160.5C 81.6203,160.771 80.287,160.104 79.5,158.5 Z M 89.5,163.5 C 87.1815,163.008 85.1815,162.008 83.5,160.5C 85.9647,159.845 87.9647,160.845 89.5,163.5 Z M 166.5,159.5 C 165.089,161.539 163.089,162.539 160.5,162.5C 160.5,162.167 160.5,161.833 160.5,161.5C 162.282,160.28 164.282,159.614 166.5,159.5 Z M 78.5,162.5 C 77.209,162.737 76.209,162.404 75.5,161.5C 76.4959,161.586 77.3292,161.252 78,160.5C 78.4643,161.094 78.631,161.761 78.5,162.5 Z M 173.5,161.5 C 172.791,162.404 171.791,162.737 170.5,162.5C 170.804,160.204 171.804,159.871 173.5,161.5 Z M 152.5,161.5 C 151.216,163.614 149.216,164.614 146.5,164.5C 148.181,162.992 150.181,161.992 152.5,161.5 Z M 78.5,162.5 C 80.1788,162.285 81.1788,162.952 81.5,164.5C 80.2905,164.068 79.2905,163.401 78.5,162.5 Z M 95.5,166.5 C 93.2504,165.87 91.2504,164.87 89.5,163.5C 91.3959,163.08 93.2292,163.08 95,163.5C 95.4828,164.448 95.6495,165.448 95.5,166.5 Z M 158.5,163.5 C 156.967,165.245 154.967,166.245 152.5,166.5C 152.987,165.527 153.487,164.527 154,163.5C 155.618,163.598 157.118,163.598 158.5,163.5 Z M 170.5,162.5 C 168.97,164.346 166.97,165.346 164.5,165.5C 165.784,163.386 167.784,162.386 170.5,162.5 Z M 84.5,165.5 C 83.209,165.737 82.209,165.404 81.5,164.5C 83.1959,162.871 84.1959,163.204 84.5,165.5 Z M 146.5,164.5 C 145.089,166.539 143.089,167.539 140.5,167.5C 142.181,165.992 144.181,164.992 146.5,164.5 Z M 164.5,165.5 C 162.97,167.346 160.97,168.346 158.5,168.5C 159.446,167.069 160.612,165.736 162,164.5C 162.671,165.252 163.504,165.586 164.5,165.5 Z M 84.5,165.5 C 86.1788,165.285 87.1788,165.952 87.5,167.5C 86.2905,167.068 85.2905,166.401 84.5,165.5 Z M 108.5,172.5 C 103.707,171.267 99.3737,169.267 95.5,166.5C 97.3959,166.08 99.2292,166.08 101,166.5C 101.442,168.679 102.442,169.345 104,168.5C 105.492,169.92 106.992,171.254 108.5,172.5 Z M 152.5,166.5 C 150.967,168.245 148.967,169.245 146.5,169.5C 146.987,168.527 147.487,167.527 148,166.5C 149.618,166.598 151.118,166.598 152.5,166.5 Z M 90.5,168.5 C 89.209,168.737 88.209,168.404 87.5,167.5C 89.1959,165.871 90.1959,166.204 90.5,168.5 Z M 101.5,174.5 C 100.603,173.402 99.7697,173.402 99,174.5C 95.9643,172.769 93.131,170.769 90.5,168.5C 91.4959,168.586 92.3292,168.252 93,167.5C 94.3509,168.961 95.8509,170.294 97.5,171.5C 98.086,171.291 98.586,170.957 99,170.5C 100.085,171.736 100.918,173.069 101.5,174.5 Z M 158.5,168.5 C 156.819,170.008 154.819,171.008 152.5,171.5C 153.446,170.069 154.612,168.736 156,167.5C 156.671,168.252 157.504,168.586 158.5,168.5 Z M 146.5,169.5 C 144.967,171.245 142.967,172.245 140.5,172.5C 140.987,171.527 141.487,170.527 142,169.5C 143.618,169.598 145.118,169.598 146.5,169.5 Z M 152.5,171.5 C 151.22,172.931 149.553,173.598 147.5,173.5C 148.469,172.691 149.302,171.691 150,170.5C 150.671,171.252 151.504,171.586 152.5,171.5 Z M 114.5,175.5 C 112.033,175.245 110.033,174.245 108.5,172.5C 109.117,172.389 109.617,172.056 110,171.5C 111.492,172.92 112.992,174.254 114.5,175.5 Z M 140.5,172.5 C 138.967,174.245 136.967,175.245 134.5,175.5C 134.987,174.527 135.487,173.527 136,172.5C 137.618,172.598 139.118,172.598 140.5,172.5 Z M 108.5,177.5 C 105.982,176.736 103.649,175.736 101.5,174.5C 104.52,173.29 106.853,174.29 108.5,177.5 Z M 146.5,174.5 C 145.22,175.931 143.553,176.598 141.5,176.5C 142.469,175.691 143.302,174.691 144,173.5C 144.671,174.252 145.504,174.586 146.5,174.5 Z M 49.5,177.5 C 49.56,176.957 49.8933,176.624 50.5,176.5C 72.4034,183.634 94.4034,190.468 116.5,197C 104.167,197.667 91.8333,197.667 79.5,197C 67.2794,193.735 57.2794,187.235 49.5,177.5 Z M 114.5,180.5 C 112.181,180.008 110.181,179.008 108.5,177.5C 110.965,176.845 112.965,177.845 114.5,180.5 Z M 197.5,176.5 C 198.239,176.369 198.906,176.536 199.5,177C 192.721,186.439 183.721,192.772 172.5,196C 159.223,197.591 145.89,197.924 132.5,197C 154.433,190.631 176.1,183.798 197.5,176.5 Z"/></g>
<g><path style="opacity:1" fill="#e3e3e3" d="M 30.5,143.5 C 30.5,143.167 30.5,142.833 30.5,142.5C 33.3147,138.13 33.9814,133.464 32.5,128.5C 31.675,127.614 30.675,127.281 29.5,127.5C 28.1667,136.167 28.1667,144.833 29.5,153.5C 29.6534,160.793 31.6534,167.46 35.5,173.5C 35.1667,174.167 34.8333,174.833 34.5,175.5C 37.2576,181.08 40.591,186.247 44.5,191C 44.3333,191.5 44.1667,192 44,192.5C 43.1627,190.993 41.9961,190.493 40.5,191C 37,194.5 33.5,198 30,201.5C 31.3668,198.392 32.5335,195.059 33.5,191.5C 33.1667,190.5 32.8333,189.5 32.5,188.5C 27.9149,190.019 26.4149,188.352 28,183.5C 30.2672,182.065 32.2672,182.398 34,184.5C 35.092,187.044 35.7586,189.711 36,192.5C 38.4493,191.094 39.4493,189.094 39,186.5C 36.5843,183.337 34.4177,180.004 32.5,176.5C 27.9215,178.706 23.4215,181.039 19,183.5C 18.2195,182.056 18.3861,180.723 19.5,179.5C 24.1603,178.174 28.1603,175.841 31.5,172.5C 29.9841,167.43 28.3174,162.43 26.5,157.5C 25.6184,158.76 24.6184,159.926 23.5,161C 27.2118,163.602 28.3785,167.102 27,171.5C 18.7551,176.404 15.5884,174.07 17.5,164.5C 12.5359,157.375 13.8692,151.875 21.5,148C 22.9437,147.219 24.277,147.386 25.5,148.5C 21.0516,149.781 18.0516,152.615 16.5,157C 16.9031,158.473 17.5697,159.806 18.5,161C 19.3317,161.688 19.9984,161.521 20.5,160.5C 17.7617,154.16 19.7617,151.493 26.5,152.5C 26.5,150.167 26.5,147.833 26.5,145.5C 21.5,144.833 16.5,144.167 11.5,143.5C 15.3834,141.427 17.5501,138.094 18,133.5C 19,132.5 20,131.5 21,130.5C 23.5754,133.726 25.0754,137.393 25.5,141.5C 25.56,142.043 25.8933,142.376 26.5,142.5C 27.8137,137.348 27.8137,132.348 26.5,127.5C 21.3771,127.709 16.3771,127.042 11.5,125.5C 11.9996,124.119 12.9996,123.453 14.5,123.5C 18.831,124.249 23.1643,124.916 27.5,125.5C 28.0658,121.194 28.7325,120.861 29.5,124.5C 33.7816,124.64 36.1149,126.973 36.5,131.5C 35.5261,136.115 33.5261,140.115 30.5,143.5 Z"/></g>
<g><path style="opacity:1" fill="#0e0e0f" d="M 29.5,127.5 C 30.675,127.281 31.675,127.614 32.5,128.5C 33.9814,133.464 33.3147,138.13 30.5,142.5C 29.5128,137.695 29.1795,132.695 29.5,127.5 Z"/></g>
<g><path style="opacity:1" fill="#dadadb" d="M 232.5,129.5 C 233.833,129.5 235.167,129.5 236.5,129.5C 236.5,130.833 236.5,132.167 236.5,133.5C 235.167,133.5 233.833,133.5 232.5,133.5C 232.5,132.167 232.5,130.833 232.5,129.5 Z"/></g>
<g><path style="opacity:1" fill="#a2a2a3" d="M 26.5,127.5 C 27.8137,132.348 27.8137,137.348 26.5,142.5C 25.8933,142.376 25.56,142.043 25.5,141.5C 26.4861,137.03 26.8195,132.363 26.5,127.5 Z"/></g>
<g><path style="opacity:1" fill="#171717" d="M 19.5,136.5 C 21.6138,137.784 22.6138,139.784 22.5,142.5C 20.4727,142.662 18.4727,142.495 16.5,142C 18.16,140.512 19.16,138.679 19.5,136.5 Z"/></g>
<g><path style="opacity:1" fill="#959597" d="M 11.5,143.5 C 16.5,144.167 21.5,144.833 26.5,145.5C 21.1254,145.828 15.7921,145.495 10.5,144.5C 10.6236,143.893 10.9569,143.56 11.5,143.5 Z"/></g>
<g><path style="opacity:1" fill="#505051" d="M 29.5,127.5 C 29.1795,132.695 29.5128,137.695 30.5,142.5C 30.5,142.833 30.5,143.167 30.5,143.5C 29.5206,146.625 29.1872,149.958 29.5,153.5C 28.1667,144.833 28.1667,136.167 29.5,127.5 Z"/></g>
<g><path style="opacity:0.662" fill="#c1c0c0" d="M 64.5,145.5 C 65.0283,146.847 65.195,148.181 65,149.5C 58.9688,157.024 52.8021,164.357 46.5,171.5C 46.5,171.167 46.5,170.833 46.5,170.5C 51.1434,162.555 55.8101,154.555 60.5,146.5C 61.6888,145.571 63.0222,145.238 64.5,145.5 Z"/></g>
<g><path style="opacity:0.3" fill="#010302" d="M 116.5,175.5 C 115.833,175.5 115.167,175.5 114.5,175.5C 112.992,174.254 111.492,172.92 110,171.5C 109.617,172.056 109.117,172.389 108.5,172.5C 106.992,171.254 105.492,169.92 104,168.5C 102.442,169.345 101.442,168.679 101,166.5C 99.2292,166.08 97.3959,166.08 95.5,166.5C 95.6495,165.448 95.4828,164.448 95,163.5C 93.2292,163.08 91.3959,163.08 89.5,163.5C 87.9647,160.845 85.9647,159.845 83.5,160.5C 82.713,158.896 81.3797,158.229 79.5,158.5C 79.1583,157.662 78.4916,157.328 77.5,157.5C 77.7218,154.924 79.0551,154.09 81.5,155C 94.4067,161.453 107.407,167.953 120.5,174.5C 121.833,175.5 121.833,176.5 120.5,177.5C 118.974,177.006 117.641,176.339 116.5,175.5 Z"/></g>
<g><path style="opacity:0.313" fill="#010302" d="M 171.5,157.5 C 169.777,156.928 168.277,156.928 167,157.5C 166.536,158.094 166.369,158.761 166.5,159.5C 164.282,159.614 162.282,160.28 160.5,161.5C 160.5,161.833 160.5,162.167 160.5,162.5C 159.508,162.328 158.842,162.662 158.5,163.5C 157.118,163.598 155.618,163.598 154,163.5C 153.487,164.527 152.987,165.527 152.5,166.5C 151.118,166.598 149.618,166.598 148,166.5C 147.487,167.527 146.987,168.527 146.5,169.5C 145.118,169.598 143.618,169.598 142,169.5C 141.487,170.527 140.987,171.527 140.5,172.5C 139.118,172.598 137.618,172.598 136,172.5C 135.487,173.527 134.987,174.527 134.5,175.5C 133.85,175.196 133.183,174.863 132.5,174.5C 131.304,174.846 131.304,175.346 132.5,176C 131.551,176.617 130.718,176.451 130,175.5C 129.692,176.308 129.192,176.975 128.5,177.5C 127.417,176.635 127.251,175.635 128,174.5C 132.334,172.303 136.5,169.97 140.5,167.5C 143.089,167.539 145.089,166.539 146.5,164.5C 149.216,164.614 151.216,163.614 152.5,161.5C 158.774,158.965 165.107,156.631 171.5,154.5C 171.5,155.5 171.5,156.5 171.5,157.5 Z"/></g>
<g><path style="opacity:1" fill="#111212" d="M 21.5,154.5 C 25.8187,154.842 26.3187,156.175 23,158.5C 21.8118,157.437 21.3118,156.103 21.5,154.5 Z"/></g>
<g><path style="opacity:0.308" fill="#010302" d="M 173.5,161.5 C 171.804,159.871 170.804,160.204 170.5,162.5C 167.784,162.386 165.784,163.386 164.5,165.5C 163.504,165.586 162.671,165.252 162,164.5C 160.612,165.736 159.446,167.069 158.5,168.5C 157.504,168.586 156.671,168.252 156,167.5C 154.612,168.736 153.446,170.069 152.5,171.5C 151.504,171.586 150.671,171.252 150,170.5C 149.302,171.691 148.469,172.691 147.5,173.5C 146.833,173.5 146.5,173.833 146.5,174.5C 145.504,174.586 144.671,174.252 144,173.5C 143.302,174.691 142.469,175.691 141.5,176.5C 140.508,176.328 139.842,176.662 139.5,177.5C 138.883,177.389 138.383,177.056 138,176.5C 134.546,178.768 131.379,180.768 128.5,182.5C 127.417,181.635 127.251,180.635 128,179.5C 130.438,178.432 132.605,177.098 134.5,175.5C 136.967,175.245 138.967,174.245 140.5,172.5C 142.967,172.245 144.967,171.245 146.5,169.5C 148.967,169.245 150.967,168.245 152.5,166.5C 154.967,166.245 156.967,165.245 158.5,163.5C 159.492,163.672 160.158,163.338 160.5,162.5C 163.089,162.539 165.089,161.539 166.5,159.5C 168.553,159.598 170.22,158.931 171.5,157.5C 173.23,156.024 174.563,156.358 175.5,158.5C 174.388,159.265 173.721,160.265 173.5,161.5 Z"/></g>
<g><path style="opacity:0.306" fill="#010302" d="M 77.5,157.5 C 77.8417,158.338 78.5084,158.672 79.5,158.5C 80.287,160.104 81.6203,160.771 83.5,160.5C 85.1815,162.008 87.1815,163.008 89.5,163.5C 91.2504,164.87 93.2504,165.87 95.5,166.5C 99.3737,169.267 103.707,171.267 108.5,172.5C 110.033,174.245 112.033,175.245 114.5,175.5C 117.162,176.892 119.495,178.726 121.5,181C 119.706,182.56 118.206,182.06 117,179.5C 116.329,180.252 115.496,180.586 114.5,180.5C 112.965,177.845 110.965,176.845 108.5,177.5C 106.853,174.29 104.52,173.29 101.5,174.5C 100.918,173.069 100.085,171.736 99,170.5C 98.586,170.957 98.086,171.291 97.5,171.5C 95.8509,170.294 94.3509,168.961 93,167.5C 92.3292,168.252 91.4959,168.586 90.5,168.5C 90.1959,166.204 89.1959,165.871 87.5,167.5C 87.1788,165.952 86.1788,165.285 84.5,165.5C 84.1959,163.204 83.1959,162.871 81.5,164.5C 81.1788,162.952 80.1788,162.285 78.5,162.5C 78.631,161.761 78.4643,161.094 78,160.5C 77.3292,161.252 76.4959,161.586 75.5,161.5C 75.2786,160.265 74.6119,159.265 73.5,158.5C 74.6888,157.571 76.0222,157.238 77.5,157.5 Z"/></g>
<g><path style="opacity:0.311" fill="#010302" d="M 75.5,161.5 C 76.209,162.404 77.209,162.737 78.5,162.5C 79.2905,163.401 80.2905,164.068 81.5,164.5C 82.209,165.404 83.209,165.737 84.5,165.5C 85.2905,166.401 86.2905,167.068 87.5,167.5C 88.209,168.404 89.209,168.737 90.5,168.5C 93.131,170.769 95.9643,172.769 99,174.5C 99.7697,173.402 100.603,173.402 101.5,174.5C 103.649,175.736 105.982,176.736 108.5,177.5C 110.181,179.008 112.181,180.008 114.5,180.5C 117.162,181.892 119.495,183.726 121.5,186C 121.167,186.5 120.833,187 120.5,187.5C 118.53,185.606 116.197,184.272 113.5,183.5C 107.648,181.429 101.815,178.429 96,174.5C 95.6667,174.833 95.3333,175.167 95,175.5C 93.6667,174.167 92.3333,172.833 91,171.5C 89.4974,171.835 88.164,171.835 87,171.5C 86.0853,170.672 85.4186,169.672 85,168.5C 83.4974,168.835 82.164,168.835 81,168.5C 77.7265,166.33 74.3931,163.997 71,161.5C 70.1072,162.711 69.2739,162.711 68.5,161.5C 69.3279,160.585 70.3279,159.919 71.5,159.5C 72.6223,160.63 73.9557,161.297 75.5,161.5 Z"/></g>
<g><path style="opacity:0.311" fill="#010302" d="M 149.5,176.5 C 146.976,178.143 144.643,179.477 142.5,180.5C 141.914,180.291 141.414,179.957 141,179.5C 140.558,181.679 139.558,182.345 138,181.5C 137.583,182.756 136.75,183.423 135.5,183.5C 132.735,184.812 130.402,186.145 128.5,187.5C 127.571,186.311 127.238,184.978 127.5,183.5C 129.06,183.481 130.56,183.148 132,182.5C 134.776,181.098 137.276,179.431 139.5,177.5C 140.492,177.672 141.158,177.338 141.5,176.5C 143.553,176.598 145.22,175.931 146.5,174.5C 147.167,174.5 147.5,174.167 147.5,173.5C 149.553,173.598 151.22,172.931 152.5,171.5C 154.819,171.008 156.819,170.008 158.5,168.5C 160.97,168.346 162.97,167.346 164.5,165.5C 166.97,165.346 168.97,164.346 170.5,162.5C 171.791,162.737 172.791,162.404 173.5,161.5C 175.908,159.105 178.241,159.105 180.5,161.5C 179.726,162.711 178.893,162.711 178,161.5C 177.167,163 176,164.167 174.5,165C 173.551,165.617 172.718,165.451 172,164.5C 171.683,166.301 171.016,166.634 170,165.5C 168.649,166.961 167.149,168.294 165.5,169.5C 164.914,169.291 164.414,168.957 164,168.5C 162.667,169.833 161.333,171.167 160,172.5C 159.586,172.043 159.086,171.709 158.5,171.5C 155.616,173.441 152.616,175.107 149.5,176.5 Z"/></g>
<g><path style="opacity:1" fill="#e3e3e3" d="M 232.5,129.5 C 231.967,132.122 230.967,134.622 229.5,137C 227.248,136.95 225.582,135.784 224.5,133.5C 223.451,136.08 222.784,138.746 222.5,141.5C 227.844,141.334 233.177,141.501 238.5,142C 237.833,142.667 237.167,143.333 236.5,144C 233.183,144.498 229.85,144.665 226.5,144.5C 226.48,146.143 227.147,147.476 228.5,148.5C 225.848,150.592 225.014,153.258 226,156.5C 226.718,157.451 227.551,157.617 228.5,157C 225.697,154.778 225.863,152.945 229,151.5C 232.073,153.566 232.239,156.066 229.5,159C 223.498,159.993 221.332,157.493 223,151.5C 223.5,151 224,150.5 224.5,150C 223.897,148.175 223.23,146.341 222.5,144.5C 221.691,150.165 221.025,155.832 220.5,161.5C 225.719,162.018 230.719,163.351 235.5,165.5C 230.675,166.468 226.008,165.801 221.5,163.5C 218.582,165.008 217.916,167.175 219.5,170C 222.769,171.063 226.102,171.896 229.5,172.5C 231.876,175.408 232.043,178.408 230,181.5C 229.851,175.362 226.684,172.862 220.5,174C 219.299,173.097 218.465,171.931 218,170.5C 215.921,174.993 213.588,179.326 211,183.5C 210.251,184.635 210.417,185.635 211.5,186.5C 212.478,186.977 213.311,187.643 214,188.5C 214.333,185.833 214.667,183.167 215,180.5C 215.7,178.968 216.866,177.968 218.5,177.5C 221.034,181.109 224.368,183.775 228.5,185.5C 224.857,186.449 221.69,185.449 219,182.5C 218.502,185.817 218.335,189.15 218.5,192.5C 214.691,191.929 211.357,190.262 208.5,187.5C 207.585,188.328 206.919,189.328 206.5,190.5C 209.984,194.485 213.651,198.318 217.5,202C 215.674,202.292 213.841,202.125 212,201.5C 208.596,202.302 205.263,203.302 202,204.5C 201.167,204.167 200.333,203.833 199.5,203.5C 201.619,199.95 203.119,196.283 204,192.5C 201.273,195.731 198.106,198.397 194.5,200.5C 196.579,204.993 198.912,209.326 201.5,213.5C 201,213.833 200.5,214.167 200,214.5C 197.094,210.363 194.427,206.03 192,201.5C 189.935,202.628 189.268,204.294 190,206.5C 192.107,210.381 193.941,214.381 195.5,218.5C 195,218.833 194.5,219.167 194,219.5C 191.205,218.815 188.372,218.315 185.5,218C 184.289,216.887 184.289,215.72 185.5,214.5C 184.833,214.167 184.167,213.833 183.5,213.5C 181.423,214.937 179.09,215.604 176.5,215.5C 176.318,213.409 176.652,211.409 177.5,209.5C 174.526,207.822 172.859,208.655 172.5,212C 173.379,216.733 174.379,221.4 175.5,226C 175.167,226.167 174.833,226.333 174.5,226.5C 171.241,222.348 166.907,220.181 161.5,220C 160.833,219.333 160.167,218.667 159.5,218C 162.484,215.174 165.817,212.841 169.5,211C 165.195,211.077 160.862,211.244 156.5,211.5C 156.829,217.206 156.495,222.872 155.5,228.5C 154.893,228.376 154.56,228.043 154.5,227.5C 154.5,222.167 154.5,216.833 154.5,211.5C 153.167,211.5 151.833,211.5 150.5,211.5C 149.957,211.44 149.624,211.107 149.5,210.5C 150.325,209.614 151.325,209.281 152.5,209.5C 152.608,204.424 155.274,202.091 160.5,202.5C 163.937,202.552 166.937,203.719 169.5,206C 165.977,204.918 162.31,204.585 158.5,205C 156.137,205.589 155.137,207.089 155.5,209.5C 162.298,209.367 168.964,208.367 175.5,206.5C 176.772,206.57 177.938,206.903 179,207.5C 181.279,204.557 184.112,203.724 187.5,205C 186.707,203.915 186.04,202.748 185.5,201.5C 187.201,201.81 188.868,201.31 190.5,200C 187.78,196.182 188.447,192.849 192.5,190C 195.702,188.517 199.036,188.183 202.5,189C 199.246,189.25 196.246,190.25 193.5,192C 191.622,193.993 191.288,196.159 192.5,198.5C 200.859,193.642 207.359,186.975 212,178.5C 214.171,173.316 216.338,168.15 218.5,163C 217.5,162.667 216.5,162.333 215.5,162C 218.725,158.576 220.225,154.409 220,149.5C 220.615,140.942 220.115,132.442 218.5,124C 219.868,119.234 220.534,119.4 220.5,124.5C 225.391,124.254 230.224,123.587 235,122.5C 235.5,122.833 236,123.167 236.5,123.5C 234.722,125.264 233.389,127.264 232.5,129.5 Z"/></g>
<g><path style="opacity:1" fill="#1e1e1e" d="M 223.5,126.5 C 226.187,126.336 228.854,126.503 231.5,127C 230.406,128.78 229.406,130.614 228.5,132.5C 227.167,131.5 225.833,130.5 224.5,129.5C 223.667,130.5 222.833,131.5 222,132.5C 221.257,130.126 221.757,128.126 223.5,126.5 Z"/></g>
<g><path style="opacity:1" fill="#292929" d="M 20.5,163.5 C 24.5433,163.853 26.21,165.853 25.5,169.5C 24.5791,167.244 22.9124,166.244 20.5,166.5C 20.4208,167.93 20.7542,169.264 21.5,170.5C 19.622,171.661 18.622,170.994 18.5,168.5C 18.9024,166.7 19.5691,165.033 20.5,163.5 Z"/></g>
<g><path style="opacity:1" fill="#222222" d="M 206.5,195.5 C 213.55,199.469 212.884,200.969 204.5,200C 205.267,198.53 205.933,197.03 206.5,195.5 Z"/></g>
<g><path style="opacity:1" fill="#e2e2e2" d="M 49.5,198.5 C 50.2011,202.727 51.0344,207.06 52,211.5C 53.7106,214.58 56.2106,215.746 59.5,215C 59.9574,214.586 60.2907,214.086 60.5,213.5C 56.9794,212.85 55.9794,211.017 57.5,208C 59.1075,208.019 60.7741,208.185 62.5,208.5C 61.9694,205.221 59.9694,203.887 56.5,204.5C 55.8115,209.34 54.1448,209.673 51.5,205.5C 51.9767,204.522 52.6433,203.689 53.5,203C 57.5913,201.773 61.0913,202.606 64,205.5C 63.2474,209.002 62.5807,212.669 62,216.5C 55.5197,219.761 51.1863,217.761 49,210.5C 48.3064,206.446 48.4731,202.446 49.5,198.5 Z"/></g>
<g><path style="opacity:1" fill="#1e1e1f" d="M 183.5,206.5 C 187.995,206.794 189.162,208.794 187,212.5C 186.373,210.073 185.206,208.073 183.5,206.5 Z"/></g>
<g><path style="opacity:1" fill="#e3e3e4" d="M 142.5,210.5 C 138.688,211.324 134.688,211.824 130.5,212C 131.044,212.717 131.711,213.217 132.5,213.5C 133.222,213.918 133.722,214.584 134,215.5C 138.686,213.85 140.686,215.516 140,220.5C 136.792,223.487 134.959,222.82 134.5,218.5C 135.822,218.33 136.989,218.663 138,219.5C 137.811,216.169 136.311,215.669 133.5,218C 133.273,220.369 133.107,222.869 133,225.5C 128.166,228.441 124.166,227.441 121,222.5C 119.155,220.133 117.989,217.467 117.5,214.5C 117.5,213.833 117.833,213.5 118.5,213.5C 119.762,219.007 123.095,222.674 128.5,224.5C 132.548,223.027 132.381,221.693 128,220.5C 127.205,217.617 128.371,216.117 131.5,216C 128.085,213.706 126.085,214.706 125.5,219C 124.552,219.483 123.552,219.649 122.5,219.5C 122.054,216.99 122.72,214.99 124.5,213.5C 125.289,213.217 125.956,212.717 126.5,212C 121.98,211.186 117.646,211.353 113.5,212.5C 113.666,217.844 113.499,223.177 113,228.5C 111.554,223.355 111.054,218.021 111.5,212.5C 110.081,211.549 108.415,211.216 106.5,211.5C 106.177,217.69 106.51,223.69 107.5,229.5C 110.016,230.6 111.016,232.267 110.5,234.5C 108.833,233.167 107.167,231.833 105.5,230.5C 103.561,232.618 101.394,232.951 99,231.5C 98.2888,229.633 98.7888,228.133 100.5,227C 102.085,226.915 103.418,226.749 104.5,226.5C 100.951,223.857 97.2839,221.357 93.5,219C 94.8782,217.287 96.5448,215.953 98.5,215C 96.5115,214.062 94.5115,213.228 92.5,212.5C 92.44,211.957 92.1067,211.624 91.5,211.5C 90.8332,217.654 90.1666,223.654 89.5,229.5C 88.5688,227.978 87.4021,226.645 86,225.5C 82.4173,224.942 78.9173,224.109 75.5,223C 72.2838,220.59 71.7838,217.757 74,214.5C 74.1629,216.676 74.9963,218.509 76.5,220C 80.6559,220.824 84.4893,222.324 88,224.5C 88.7772,221.571 88.6105,218.737 87.5,216C 84.9332,216.696 82.4332,217.862 80,219.5C 76.9422,218.676 76.7756,217.342 79.5,215.5C 74.1906,214.764 73.524,212.93 77.5,210C 82.212,208.557 86.0453,209.723 89,213.5C 89.3333,211.5 89.6667,209.5 90,207.5C 90.4643,208.094 90.631,208.761 90.5,209.5C 97.0112,210.818 103.678,210.818 110.5,209.5C 110.376,208.893 110.043,208.56 109.5,208.5C 110.212,204.124 112.879,202.124 117.5,202.5C 122.362,202.507 126.362,204.341 129.5,208C 126.146,206.384 122.48,205.218 118.5,204.5C 115.719,204.607 113.719,205.941 112.5,208.5C 122.56,209.19 132.56,209.856 142.5,210.5 Z"/></g>
<g><path style="opacity:1" fill="#a0a0a2" d="M 109.5,208.5 C 110.043,208.56 110.376,208.893 110.5,209.5C 103.678,210.818 97.0112,210.818 90.5,209.5C 97.0221,209.823 103.355,209.49 109.5,208.5 Z"/></g>
<g><path style="opacity:1" fill="#111111" d="M 80.5,211.5 C 81.9778,211.238 83.3112,211.571 84.5,212.5C 82.5365,215.194 81.2032,214.861 80.5,211.5 Z"/></g>
<g><path style="opacity:1" fill="#69686a" d="M 113.5,212.5 C 117.646,211.353 121.98,211.186 126.5,212C 125.956,212.717 125.289,213.217 124.5,213.5C 122.5,212.167 120.5,212.167 118.5,213.5C 117.833,213.5 117.5,213.833 117.5,214.5C 116.533,213.194 115.199,212.527 113.5,212.5 Z"/></g>
<g><path style="opacity:1" fill="#676769" d="M 142.5,210.5 C 143.043,210.56 143.376,210.893 143.5,211.5C 139.687,212.167 136.021,212.834 132.5,213.5C 131.711,213.217 131.044,212.717 130.5,212C 134.688,211.824 138.688,211.324 142.5,210.5 Z"/></g>
<g><path style="opacity:1" fill="#7d7d7d" d="M 92.5,212.5 C 91.8334,218.346 91.1668,224.346 90.5,230.5C 89.8933,230.376 89.56,230.043 89.5,229.5C 90.1666,223.654 90.8332,217.654 91.5,211.5C 92.1067,211.624 92.44,211.957 92.5,212.5 Z"/></g>
<g><path style="opacity:1" fill="#6c6c6e" d="M 111.5,212.5 C 110.167,212.5 108.833,212.5 107.5,212.5C 107.5,218.167 107.5,223.833 107.5,229.5C 106.51,223.69 106.177,217.69 106.5,211.5C 108.415,211.216 110.081,211.549 111.5,212.5 Z"/></g>
<g><path style="opacity:1" fill="#9b9b9c" d="M 150.5,211.5 C 151.833,211.5 153.167,211.5 154.5,211.5C 154.5,216.833 154.5,222.167 154.5,227.5C 153.513,222.695 153.179,217.695 153.5,212.5C 152.209,212.737 151.209,212.404 150.5,211.5 Z"/></g>
<g><path style="opacity:1" fill="#151515" d="M 168.5,214.5 C 170.12,215.841 171.12,217.674 171.5,220C 169.177,219.694 166.844,219.028 164.5,218C 166.093,217.051 167.426,215.885 168.5,214.5 Z"/></g>
<g><path style="opacity:1" fill="#464647" d="M 189.5,213.5 C 191.625,214.368 191.791,215.368 190,216.5C 188.317,215.824 188.15,214.824 189.5,213.5 Z"/></g>
<g><path style="opacity:1" fill="#131314" d="M 100.5,213.5 C 101.568,212.566 102.901,212.232 104.5,212.5C 104.82,215.898 104.487,219.232 103.5,222.5C 101.833,221.333 100.167,220.167 98.5,219C 100.061,218.059 101.395,216.892 102.5,215.5C 102.145,214.478 101.478,213.811 100.5,213.5 Z"/></g>
<g><path style="opacity:1" fill="#181819" d="M 118.5,213.5 C 120.5,212.167 122.5,212.167 124.5,213.5C 122.72,214.99 122.054,216.99 122.5,219.5C 123.552,219.649 124.552,219.483 125.5,219C 126.085,214.706 128.085,213.706 131.5,216C 128.371,216.117 127.205,217.617 128,220.5C 132.381,221.693 132.548,223.027 128.5,224.5C 123.095,222.674 119.762,219.007 118.5,213.5 Z"/></g>
<g><path style="opacity:0.704" fill="#da5b9c" d="M 109.5,242.5 C 122.5,242.5 135.5,242.5 148.5,242.5C 148.5,250.5 148.5,258.5 148.5,266.5C 146.5,266.5 144.5,266.5 142.5,266.5C 142.203,262.233 142.536,258.066 143.5,254C 141.527,253.505 139.527,253.338 137.5,253.5C 137.5,255.833 137.5,258.167 137.5,260.5C 135.833,260.5 134.167,260.5 132.5,260.5C 132.5,258.167 132.5,255.833 132.5,253.5C 128.445,253.176 124.445,253.509 120.5,254.5C 123.428,255.484 126.428,255.817 129.5,255.5C 129.5,257.167 129.5,258.833 129.5,260.5C 125.167,260.5 120.833,260.5 116.5,260.5C 116.5,256.5 116.5,252.5 116.5,248.5C 122.176,248.334 127.843,248.501 133.5,249C 134.5,251 135.5,251 136.5,249C 138.833,248.667 141.167,248.333 143.5,248C 133.506,247.5 123.506,247.334 113.5,247.5C 113.5,252.5 113.5,257.5 113.5,262.5C 121.86,262.169 130.193,262.502 138.5,263.5C 137.687,264.814 136.687,265.981 135.5,267C 126.833,267.667 118.167,267.667 109.5,267C 108.181,258.833 108.181,250.667 109.5,242.5 Z"/></g>
<g><path style="opacity:0.704" fill="#da5b9c" d="M 150.5,242.5 C 161.167,242.5 171.833,242.5 182.5,242.5C 182.5,245.833 182.5,249.167 182.5,252.5C 173.5,252.5 164.5,252.5 155.5,252.5C 155.5,255.5 155.5,258.5 155.5,261.5C 162.508,261.666 169.508,261.5 176.5,261C 170.509,260.501 164.509,260.334 158.5,260.5C 158.5,258.5 158.5,256.5 158.5,254.5C 166.174,254.334 173.841,254.5 181.5,255C 182.622,258.409 182.789,261.909 182,265.5C 171.582,266.487 161.082,266.82 150.5,266.5C 150.5,260.167 150.5,253.833 150.5,247.5C 186.5,247.167 186.5,246.833 150.5,246.5C 150.5,245.167 150.5,243.833 150.5,242.5 Z"/></g>
<g><path style="opacity:0.694" fill="#da5b9c" d="M 66.5,243.5 C 79.5,243.5 92.5,243.5 105.5,243.5C 105.5,244.833 105.5,246.167 105.5,247.5C 93.8286,247.333 82.1619,247.5 70.5,248C 71.4777,254.41 71.811,260.91 71.5,267.5C 69.8333,267.5 68.1667,267.5 66.5,267.5C 66.5,259.5 66.5,251.5 66.5,243.5 Z"/></g>
<g><path style="opacity:0.722" fill="#da5b9c" d="M 74.5,249.5 C 84.8333,249.5 95.1667,249.5 105.5,249.5C 105.5,255.5 105.5,261.5 105.5,267.5C 103.833,267.5 102.167,267.5 100.5,267.5C 100.936,264.636 100.103,262.303 98,260.5C 96.3742,262.917 94.8742,265.417 93.5,268C 87.5092,268.499 81.5092,268.666 75.5,268.5C 75.5,266.833 75.5,265.167 75.5,263.5C 96.3015,263.525 96.3015,261.025 75.5,256C 74.5769,253.959 74.2436,251.792 74.5,249.5 Z M 86.5,254.5 C 90.97,253.514 95.6367,253.181 100.5,253.5C 100.5,254.5 100.5,255.5 100.5,256.5C 95.6383,256.882 90.9716,256.216 86.5,254.5 Z"/></g>
</svg>
