<?xml version="1.0" encoding="UTF-8"?>
<!DOCTYPE svg PUBLIC "-//W3C//DTD SVG 1.1//EN" "http://www.w3.org/Graphics/SVG/1.1/DTD/svg11.dtd">
<svg xmlns="http://www.w3.org/2000/svg" version="1.1" width="319px" height="225px" style="shape-rendering:geometricPrecision; text-rendering:geometricPrecision; image-rendering:optimizeQuality; fill-rule:evenodd; clip-rule:evenodd" xmlns:xlink="http://www.w3.org/1999/xlink">
<g><path style="opacity:0.986" fill="#193f66" d="M 228.5,49.5 C 207.078,16.4147 177.745,6.58141 140.5,20C 122.382,28.7761 112.048,43.1094 109.5,63C 109.506,65.0326 109.839,66.866 110.5,68.5C 112.822,83.4885 121.488,92.1552 136.5,94.5C 141.462,93.9016 146.128,92.4016 150.5,90C 155.477,85.3536 160.144,80.3536 164.5,75C 179.155,66.2622 192.322,68.0956 204,80.5C 211.627,94.1811 210.961,107.514 202,120.5C 186.18,143.487 164.347,152.987 136.5,149C 110.75,143.252 93.9166,127.752 86,102.5C 76.7735,61.797 90.2735,31.297 126.5,11C 163.98,-3.25627 195.48,4.9104 221,35.5C 223.78,40.0616 226.28,44.7283 228.5,49.5 Z"/></g>
<g><path style="opacity:0.955" fill="#e21e37" d="M 228.5,49.5 C 241.505,84.6468 234.171,114.814 206.5,140C 200.11,144.864 193.11,148.697 185.5,151.5C 184.304,151.154 184.304,150.654 185.5,150C 212.965,133.57 224.798,109.403 221,77.5C 210.353,41.8475 186.519,25.6809 149.5,29C 127.533,33.4662 114.533,46.6329 110.5,68.5C 109.839,66.866 109.506,65.0326 109.5,63C 112.048,43.1094 122.382,28.7761 140.5,20C 177.745,6.58141 207.078,16.4147 228.5,49.5 Z"/></g>
<g><path style="opacity:0.834" fill="#5b5b5a" d="M 4.5,184.5 C 6.92397,184.192 9.25731,184.526 11.5,185.5C 13.5682,191.538 15.7349,197.538 18,203.5C 19.9416,197.178 21.7749,190.844 23.5,184.5C 26.1667,184.5 28.8333,184.5 31.5,184.5C 31.5,193.833 31.5,203.167 31.5,212.5C 29.8333,212.5 28.1667,212.5 26.5,212.5C 26.6662,206.491 26.4995,200.491 26,194.5C 23.8568,200.428 22.0234,206.428 20.5,212.5C 18.5328,212.739 16.6995,212.406 15,211.5C 13.3333,206.5 11.6667,201.5 10,196.5C 9.50065,201.823 9.33398,207.156 9.5,212.5C 7.83333,212.5 6.16667,212.5 4.5,212.5C 4.5,203.167 4.5,193.833 4.5,184.5 Z"/></g>
<g><path style="opacity:0.791" fill="#5b5b5a" d="M 35.5,184.5 C 40.1225,183.408 41.9558,185.075 41,189.5C 36.3252,191.334 34.4919,189.667 35.5,184.5 Z"/></g>
<g><path style="opacity:0.749" fill="#595958" d="M 67.5,184.5 C 69.1992,184.34 70.8659,184.506 72.5,185C 73.9865,188.042 72.9865,189.875 69.5,190.5C 66.6246,189.207 65.958,187.207 67.5,184.5 Z"/></g>
<g><path style="opacity:0.848" fill="#5b5b5a" d="M 178.5,184.5 C 180.167,184.5 181.833,184.5 183.5,184.5C 183.5,186.167 183.5,187.833 183.5,189.5C 181.641,189.461 180.308,190.294 179.5,192C 180.793,192.49 182.127,192.657 183.5,192.5C 183.5,193.833 183.5,195.167 183.5,196.5C 182.167,196.5 180.833,196.5 179.5,196.5C 179.5,201.833 179.5,207.167 179.5,212.5C 177.833,212.5 176.167,212.5 174.5,212.5C 174.5,207.167 174.5,201.833 174.5,196.5C 173.5,196.5 172.5,196.5 171.5,196.5C 171.5,195.167 171.5,193.833 171.5,192.5C 172.5,192.5 173.5,192.5 174.5,192.5C 173.774,188.693 175.107,186.026 178.5,184.5 Z"/></g>
<g><path style="opacity:0.812" fill="#5b5b5a" d="M 201.5,184.5 C 203.5,184.5 205.5,184.5 207.5,184.5C 207.666,192.174 207.5,199.841 207,207.5C 206.535,208.931 205.701,210.097 204.5,211C 201.274,212.199 197.941,212.699 194.5,212.5C 194.5,210.833 194.5,209.167 194.5,207.5C 196.792,207.756 198.959,207.423 201,206.5C 201.5,199.174 201.666,191.841 201.5,184.5 Z"/></g>
<g><path style="opacity:0.799" fill="#5a5a58" d="M 264.5,184.5 C 269.123,183.408 270.956,185.075 270,189.5C 265.123,191.052 263.289,189.385 264.5,184.5 Z"/></g>
<g><path style="opacity:0.763" fill="#5c5c5b" d="M 95.5,186.5 C 97.5,186.5 99.5,186.5 101.5,186.5C 101.5,188.5 101.5,190.5 101.5,192.5C 102.833,192.5 104.167,192.5 105.5,192.5C 105.5,193.833 105.5,195.167 105.5,196.5C 104.167,196.5 102.833,196.5 101.5,196.5C 101.5,200.167 101.5,203.833 101.5,207.5C 102.833,207.5 104.167,207.5 105.5,207.5C 105.5,209.167 105.5,210.833 105.5,212.5C 102.398,212.846 99.5645,212.179 97,210.5C 95.6211,205.964 95.1211,201.297 95.5,196.5C 94.5,196.5 93.5,196.5 92.5,196.5C 92.5,195.167 92.5,193.833 92.5,192.5C 93.5,192.5 94.5,192.5 95.5,192.5C 95.5,190.5 95.5,188.5 95.5,186.5 Z"/></g>
<g><path style="opacity:0.854" fill="#5c5c5a" d="M 252.5,186.5 C 254.167,186.5 255.833,186.5 257.5,186.5C 257.5,188.5 257.5,190.5 257.5,192.5C 258.833,192.5 260.167,192.5 261.5,192.5C 261.5,193.833 261.5,195.167 261.5,196.5C 260.167,196.5 258.833,196.5 257.5,196.5C 257.335,199.85 257.502,203.183 258,206.5C 259.011,207.337 260.178,207.67 261.5,207.5C 261.5,209.167 261.5,210.833 261.5,212.5C 258.138,212.93 255.305,211.93 253,209.5C 252.501,205.179 252.334,200.846 252.5,196.5C 251.5,196.5 250.5,196.5 249.5,196.5C 249.5,195.167 249.5,193.833 249.5,192.5C 250.5,192.5 251.5,192.5 252.5,192.5C 252.5,190.5 252.5,188.5 252.5,186.5 Z"/></g>
<g><path style="opacity:0.786" fill="#5b5b5a" d="M 53.5,191.5 C 57.0614,191.365 59.8948,192.698 62,195.5C 63.3507,201.072 63.8507,206.738 63.5,212.5C 61.5,212.5 59.5,212.5 57.5,212.5C 57.6659,207.489 57.4993,202.489 57,197.5C 54.2242,195.86 52.2242,196.527 51,199.5C 50.501,203.821 50.3343,208.154 50.5,212.5C 48.8333,212.5 47.1667,212.5 45.5,212.5C 45.5,205.833 45.5,199.167 45.5,192.5C 47.4672,192.261 49.3005,192.594 51,193.5C 51.9947,192.934 52.828,192.267 53.5,191.5 Z"/></g>
<g><path style="opacity:0.835" fill="#5b5b5a" d="M 81.5,191.5 C 85.6205,191.091 88.9538,192.424 91.5,195.5C 90.8333,196.833 89.8333,197.833 88.5,198.5C 86.2927,196.69 83.9593,196.357 81.5,197.5C 84.421,199.089 87.421,200.589 90.5,202C 93.3343,206.36 92.3343,209.693 87.5,212C 84.8333,212.667 82.1667,212.667 79.5,212C 74.9985,210.183 74.4985,207.683 78,204.5C 80.5353,207.871 83.3687,208.538 86.5,206.5C 83.4853,204.55 80.3187,202.884 77,201.5C 75.3151,196.487 76.8151,193.154 81.5,191.5 Z"/></g>
<g><path style="opacity:0.824" fill="#5b5b5a" d="M 157.5,191.5 C 168.032,191.199 172.199,196.199 170,206.5C 167.081,212.025 162.581,213.858 156.5,212C 149.498,207.995 147.998,202.495 152,195.5C 153.5,193.531 155.333,192.198 157.5,191.5 Z M 158.5,196.5 C 165.225,197.07 167.058,200.403 164,206.5C 161.085,209.07 158.419,208.737 156,205.5C 154.93,201.858 155.764,198.858 158.5,196.5 Z"/></g>
<g><path style="opacity:0.816" fill="#5a5a58" d="M 237.5,191.5 C 241.785,190.75 245.119,192.083 247.5,195.5C 247.167,197.167 246.167,198.167 244.5,198.5C 242.724,196.553 240.724,196.22 238.5,197.5C 241.788,199.219 244.955,201.219 248,203.5C 249.379,207.475 248.213,210.309 244.5,212C 239.209,213.477 234.875,212.143 231.5,208C 232.667,206.833 233.833,205.667 235,204.5C 237.558,208.427 240.391,208.927 243.5,206C 240.583,204.472 237.583,203.139 234.5,202C 231.374,197.338 232.374,193.838 237.5,191.5 Z"/></g>
<g><path style="opacity:0.816" fill="#5b5b5a" d="M 281.5,191.5 C 285.529,190.883 288.863,192.05 291.5,195C 291.036,198.199 289.703,198.866 287.5,197C 279.754,196.077 277.254,199.243 280,206.5C 283.522,209.102 286.856,208.769 290,205.5C 292.361,208.407 291.861,210.574 288.5,212C 276.801,213.635 271.967,208.802 274,197.5C 275.707,194.41 278.207,192.41 281.5,191.5 Z"/></g>
<g><path style="opacity:0.841" fill="#5a5a59" d="M 300.5,191.5 C 309.884,190.884 314.217,195.217 313.5,204.5C 308.821,204.334 304.155,204.501 299.5,205C 303.034,209.194 306.867,209.36 311,205.5C 313.498,209.009 312.665,211.176 308.5,212C 294.632,213.098 290.465,207.264 296,194.5C 297.652,193.601 299.152,192.601 300.5,191.5 Z M 301.5,196.5 C 304.657,196.079 306.99,197.245 308.5,200C 305.446,200.821 302.446,200.655 299.5,199.5C 300.193,198.482 300.859,197.482 301.5,196.5 Z"/></g>
<g><path style="opacity:0.703" fill="#5b5b5a" d="M 35.5,192.5 C 37.5,192.5 39.5,192.5 41.5,192.5C 41.5,199.167 41.5,205.833 41.5,212.5C 39.5,212.5 37.5,212.5 35.5,212.5C 35.5,205.833 35.5,199.167 35.5,192.5 Z"/></g>
<g><path style="opacity:0.823" fill="#5c5c5a" d="M 67.5,192.5 C 69.1667,192.5 70.8333,192.5 72.5,192.5C 72.5,199.167 72.5,205.833 72.5,212.5C 70.8333,212.5 69.1667,212.5 67.5,212.5C 67.5,205.833 67.5,199.167 67.5,192.5 Z"/></g>
<g><path style="opacity:0.745" fill="#5b5b5b" d="M 117.5,191.5 C 119.256,192.552 119.923,194.219 119.5,196.5C 117.007,196.329 115.174,197.329 114,199.5C 113.501,203.821 113.334,208.154 113.5,212.5C 111.5,212.5 109.5,212.5 107.5,212.5C 107.5,205.833 107.5,199.167 107.5,192.5C 109.591,192.318 111.591,192.652 113.5,193.5C 115.026,193.006 116.359,192.339 117.5,191.5 Z"/></g>
<g><path style="opacity:0.838" fill="#5a5a59" d="M 120.5,192.5 C 122.467,192.261 124.301,192.594 126,193.5C 127.333,196.833 128.667,200.167 130,203.5C 131.597,200.209 133.097,196.875 134.5,193.5C 136.421,192.359 138.421,192.192 140.5,193C 137.004,201.483 133.504,209.983 130,218.5C 128.301,219.406 126.467,219.739 124.5,219.5C 125.071,216.523 126.071,213.69 127.5,211C 124.739,204.982 122.406,198.815 120.5,192.5 Z"/></g>
<g><path style="opacity:0.82" fill="#5a5a5a" d="M 211.5,192.5 C 213.167,192.5 214.833,192.5 216.5,192.5C 216.275,197.248 216.775,201.915 218,206.5C 220.776,208.14 222.776,207.473 224,204.5C 224.499,200.514 224.666,196.514 224.5,192.5C 226.167,192.5 227.833,192.5 229.5,192.5C 229.5,199.167 229.5,205.833 229.5,212.5C 224.905,211.934 220.238,211.767 215.5,212C 214.667,211.167 213.833,210.333 213,209.5C 211.649,203.928 211.149,198.262 211.5,192.5 Z"/></g>
<g><path style="opacity:0.838" fill="#5b5b5b" d="M 264.5,192.5 C 266.167,192.5 267.833,192.5 269.5,192.5C 269.5,199.167 269.5,205.833 269.5,212.5C 267.833,212.5 266.167,212.5 264.5,212.5C 264.5,205.833 264.5,199.167 264.5,192.5 Z"/></g>
</svg>
