<?xml version="1.0" encoding="UTF-8"?>
<!DOCTYPE svg PUBLIC "-//W3C//DTD SVG 1.1//EN" "http://www.w3.org/Graphics/SVG/1.1/DTD/svg11.dtd">
<svg xmlns="http://www.w3.org/2000/svg" version="1.1" width="368px" height="137px" style="shape-rendering:geometricPrecision; text-rendering:geometricPrecision; image-rendering:optimizeQuality; fill-rule:evenodd; clip-rule:evenodd" xmlns:xlink="http://www.w3.org/1999/xlink">
<g><path style="opacity:1" fill="#fcfcfc" d="M -0.5,-0.5 C 122.167,-0.5 244.833,-0.5 367.5,-0.5C 367.5,45.1667 367.5,90.8333 367.5,136.5C 244.833,136.5 122.167,136.5 -0.5,136.5C -0.5,90.8333 -0.5,45.1667 -0.5,-0.5 Z"/></g>
<g><path style="opacity:1" fill="#628092" d="M 66.5,12.5 C 63.0977,12.3424 59.7644,12.6758 56.5,13.5C 59.5524,10.0205 62.8857,9.68717 66.5,12.5 Z"/></g>
<g><path style="opacity:1" fill="#76c0e8" d="M 66.5,12.5 C 68.5,12.5 69.5,13.5 69.5,15.5C 69.5,18.1667 69.5,20.8333 69.5,23.5C 66.5938,28.3818 62.5938,29.5485 57.5,27C 55.8588,25.871 54.8588,24.371 54.5,22.5C 54.4013,19.7628 54.7347,17.0961 55.5,14.5C 55.5,13.8333 55.8333,13.5 56.5,13.5C 59.7644,12.6758 63.0977,12.3424 66.5,12.5 Z"/></g>
<g><path style="opacity:1" fill="#070707" d="M 299.5,14.5 C 301.074,14.9371 302.241,15.9371 303,17.5C 315.3,39.9611 327.8,62.2944 340.5,84.5C 338.23,86.9748 335.563,88.9748 332.5,90.5C 327.96,81.9198 323.294,73.4198 318.5,65C 306.104,64.1178 293.77,64.6178 281.5,66.5C 278.213,74.7035 274.546,82.7035 270.5,90.5C 267.833,88.8333 265.167,87.1667 262.5,85.5C 275.101,61.9639 287.435,38.2973 299.5,14.5 Z"/></g>
<g><path style="opacity:1" fill="#070707" d="M 177.5,15.5 C 178.5,15.5 179.5,15.5 180.5,15.5C 180.833,18.1667 181.167,20.8333 181.5,23.5C 173.332,24.6676 166.498,28.3343 161,34.5C 160.333,36.5 160.333,38.5 161,40.5C 162.5,42 164,43.5 165.5,45C 172.099,48.5477 178.265,52.7144 184,57.5C 187.366,63.641 187.032,69.641 183,75.5C 175.632,83.768 166.465,88.768 155.5,90.5C 155.244,88.0628 154.577,85.7294 153.5,83.5C 161.855,82.0727 169.022,78.406 175,72.5C 177.618,67.054 176.451,62.554 171.5,59C 164.556,55.9474 158.389,51.7807 153,46.5C 149.388,37.8237 151.555,30.6571 159.5,25C 165.15,21.01 171.15,17.8433 177.5,15.5 Z"/></g>
<g><path style="opacity:1" fill="#080808" d="M 201.5,15.5 C 215.379,22.8897 225.379,33.8897 231.5,48.5C 237.485,33.2028 247.985,22.2028 263,15.5C 264.64,17.579 265.806,19.9124 266.5,22.5C 250.48,29.5399 240.313,41.5399 236,58.5C 235.5,68.828 235.334,79.1613 235.5,89.5C 232.167,89.5 228.833,89.5 225.5,89.5C 231.862,60.4214 222.528,38.2548 197.5,23C 199.494,20.8425 200.828,18.3425 201.5,15.5 Z"/></g>
<g><path style="opacity:1" fill="#020202" d="M 116.5,17.5 C 119.5,17.5 122.5,17.5 125.5,17.5C 125.5,41.1667 125.5,64.8333 125.5,88.5C 122.5,88.5 119.5,88.5 116.5,88.5C 116.5,64.8333 116.5,41.1667 116.5,17.5 Z"/></g>
<g><path style="opacity:1" fill="#0b9bf8" d="M 44.5,22.5 C 45.4942,32.6532 45.8276,42.9865 45.5,53.5C 38.7895,53.287 32.1228,53.6204 25.5,54.5C 25.6943,40.1008 32.0277,29.4342 44.5,22.5 Z"/></g>
<g><path style="opacity:1" fill="#129bf8" d="M 79.5,22.5 C 88.4129,26.9341 94.5796,33.9341 98,43.5C 99.1076,47.0863 99.6076,50.753 99.5,54.5C 92.8772,53.6204 86.2105,53.287 79.5,53.5C 79.5,43.1667 79.5,32.8333 79.5,22.5 Z"/></g>
<g><path style="opacity:1" fill="#3e769c" d="M 55.5,14.5 C 54.7347,17.0961 54.4013,19.7628 54.5,22.5C 53.5184,25.9619 53.185,29.6286 53.5,33.5C 53.5,39.8333 53.5,46.1667 53.5,52.5C 52.5052,41.3456 52.1719,30.0123 52.5,18.5C 53.0256,16.7697 54.0256,15.4363 55.5,14.5 Z"/></g>
<g><path style="opacity:1" fill="#36698b" d="M 69.5,15.5 C 70.4013,16.2905 71.0679,17.2905 71.5,18.5C 71.8281,30.0123 71.4948,41.3456 70.5,52.5C 70.8271,42.6522 70.4938,32.9856 69.5,23.5C 69.5,20.8333 69.5,18.1667 69.5,15.5 Z"/></g>
<g><path style="opacity:1" fill="#f5f5f5" d="M 299.5,30.5 C 300.458,30.9528 301.292,31.6195 302,32.5C 306.472,41.1085 310.639,49.7751 314.5,58.5C 305.143,58.8316 295.81,58.4983 286.5,57.5C 290.575,48.3517 294.908,39.3517 299.5,30.5 Z"/></g>
<g><path style="opacity:1" fill="#009af8" d="M 26.5,60.5 C 50.1667,60.5 73.8333,60.5 97.5,60.5C 97.5,61.8333 97.5,63.1667 97.5,64.5C 73.8333,64.5 50.1667,64.5 26.5,64.5C 26.5,63.1667 26.5,61.8333 26.5,60.5 Z"/></g>
<g><path style="opacity:1" fill="#949494" d="M 116.5,17.5 C 116.5,41.1667 116.5,64.8333 116.5,88.5C 119.5,88.5 122.5,88.5 125.5,88.5C 122.375,89.4794 119.042,89.8128 115.5,89.5C 115.169,65.3275 115.502,41.3275 116.5,17.5 Z"/></g>
<g><path style="opacity:1" fill="#48abef" d="M 52.5,18.5 C 52.1719,30.0123 52.5052,41.3456 53.5,52.5C 54.5,52.5 55.5,52.5 56.5,52.5C 61.1667,52.5 65.8333,52.5 70.5,52.5C 71.4948,41.3456 71.8281,30.0123 71.5,18.5C 73.5273,18.3379 75.5273,18.5045 77.5,19C 78.9733,19.7096 79.6399,20.8762 79.5,22.5C 79.5,32.8333 79.5,43.1667 79.5,53.5C 86.2105,53.287 92.8772,53.6204 99.5,54.5C 99.6025,57.2186 99.2692,59.8853 98.5,62.5C 100.313,68.3423 100.98,74.3423 100.5,80.5C 100.5,80.8333 100.5,81.1667 100.5,81.5C 74.1667,81.5 47.8333,81.5 21.5,81.5C 22.209,80.596 23.209,80.2627 24.5,80.5C 23.8872,74.7291 24.5539,69.3958 26.5,64.5C 50.1667,64.5 73.8333,64.5 97.5,64.5C 97.5,63.1667 97.5,61.8333 97.5,60.5C 73.8333,60.5 50.1667,60.5 26.5,60.5C 25.6586,58.6208 25.3253,56.6208 25.5,54.5C 32.1228,53.6204 38.7895,53.287 45.5,53.5C 45.8276,42.9865 45.4942,32.6532 44.5,22.5C 46.0263,19.1074 48.693,17.7741 52.5,18.5 Z"/></g>
<g><path style="opacity:1" fill="#192a2f" d="M 53.5,33.5 C 54.9394,39.6365 55.9394,45.9699 56.5,52.5C 55.5,52.5 54.5,52.5 53.5,52.5C 53.5,46.1667 53.5,39.8333 53.5,33.5 Z"/></g>
<g><path style="opacity:1" fill="#464848" d="M 54.5,22.5 C 54.8588,24.371 55.8588,25.871 57.5,27C 62.5938,29.5485 66.5938,28.3818 69.5,23.5C 70.4938,32.9856 70.8271,42.6522 70.5,52.5C 65.8333,52.5 61.1667,52.5 56.5,52.5C 55.9394,45.9699 54.9394,39.6365 53.5,33.5C 53.185,29.6286 53.5184,25.9619 54.5,22.5 Z"/></g>
<g><path style="opacity:1" fill="#0099f8" d="M 21.5,81.5 C 47.8333,81.5 74.1667,81.5 100.5,81.5C 102.308,82.9179 102.975,84.9179 102.5,87.5C 75.5,87.5 48.5,87.5 21.5,87.5C 21.5,85.5 21.5,83.5 21.5,81.5 Z"/></g>
<g><path style="opacity:1" fill="#aad6fb" d="M 100.5,81.5 C 100.5,81.1667 100.5,80.8333 100.5,80.5C 101.5,80.5 102.5,80.5 103.5,80.5C 103.5,83.1667 103.5,85.8333 103.5,88.5C 75.9949,88.8312 48.6616,88.4979 21.5,87.5C 48.5,87.5 75.5,87.5 102.5,87.5C 102.975,84.9179 102.308,82.9179 100.5,81.5 Z"/></g>
<g><path style="opacity:1" fill="#727272" d="M 169.5,99.5 C 171.167,98.1667 172.833,98.1667 174.5,99.5C 173.833,99.5 173.5,99.8333 173.5,100.5C 172.5,100.5 171.5,100.5 170.5,100.5C 170.5,99.8333 170.167,99.5 169.5,99.5 Z"/></g>
<g><path style="opacity:1" fill="#7b7b7b" d="M 304.5,99.5 C 306.167,98.1667 307.833,98.1667 309.5,99.5C 308.833,99.5 308.5,99.8333 308.5,100.5C 307.5,100.5 306.5,100.5 305.5,100.5C 305.5,99.8333 305.167,99.5 304.5,99.5 Z"/></g>
<g><path style="opacity:1" fill="#353535" d="M 21.5,97.5 C 22.8001,99.223 23.4668,101.39 23.5,104C 23.1667,106.167 22.8333,108.333 22.5,110.5C 21.5078,106.217 21.1744,101.884 21.5,97.5 Z"/></g>
<g><path style="opacity:1" fill="#000000" d="M 51.5,100.5 C 59.1477,99.3073 61.1477,99.3073 57.5,100.5C 57.1667,113.833 56.8333,113.833 56.5,100.5C 54.8333,100.5 53.1667,100.5 51.5,100.5 Z"/></g>
<g><path style="opacity:1" fill="#030303" d="M 71.5,100.5 C 71.5,101.833 71.5,103.167 71.5,104.5C 76.8333,104.833 76.8333,105.167 71.5,105.5C 71.5,106.833 71.5,108.167 71.5,109.5C 76.5,110.003 76.1667,110.336 70.5,110.5C 70.163,106.379 70.4964,103.045 71.5,100.5 Z"/></g>
<g><path style="opacity:1" fill="#2f2f2f" d="M 84.5,98.5 C 87.9373,98.2449 90.6039,99.4116 92.5,102C 92.0496,103.285 91.3829,104.452 90.5,105.5C 91.5,106.833 92.5,108.167 93.5,109.5C 91.5217,109.262 89.8551,107.929 88.5,105.5C 91.4561,102.411 90.7895,100.744 86.5,100.5C 86.8204,103.898 86.487,107.232 85.5,110.5C 84.5091,106.555 84.1758,102.555 84.5,98.5 Z"/></g>
<g><path style="opacity:1" fill="#383838" d="M 110.5,98.5 C 114.397,112.003 112.063,113.336 103.5,102.5C 102.682,105.107 102.182,107.774 102,110.5C 101.175,106.789 101.341,103.122 102.5,99.5C 105.151,101.65 107.651,103.983 110,106.5C 110.497,103.854 110.664,101.187 110.5,98.5 Z"/></g>
<g><path style="opacity:1" fill="#1b1b1b" d="M 195.5,99.5 C 196.482,102.962 196.815,106.629 196.5,110.5C 193.536,108.038 190.703,105.371 188,102.5C 187.818,105.226 187.318,107.893 186.5,110.5C 185.762,106.871 185.929,103.204 187,99.5C 189.667,102.167 192.333,104.833 195,107.5C 195.497,104.854 195.664,102.187 195.5,99.5 Z"/></g>
<g><path style="opacity:1" fill="#000000" d="M 225.5,99.5 C 226.479,102.625 226.813,105.958 226.5,109.5C 228.199,109.34 229.866,109.506 231.5,110C 229.527,110.495 227.527,110.662 225.5,110.5C 225.5,106.833 225.5,103.167 225.5,99.5 Z"/></g>
<g><path style="opacity:1" fill="#020202" d="M 286.5,105.5 C 285.167,105.5 283.833,105.5 282.5,105.5C 282.784,107.415 282.451,109.081 281.5,110.5C 281.335,106.818 281.501,103.152 282,99.5C 282.494,101.134 282.66,102.801 282.5,104.5C 284.099,104.232 285.432,104.566 286.5,105.5 Z"/></g>
<g><path style="opacity:1" fill="#010101" d="M 341.5,99.5 C 342.167,102.833 342.833,106.167 343.5,109.5C 344.873,109.343 346.207,109.51 347.5,110C 345.527,110.495 343.527,110.662 341.5,110.5C 341.5,106.833 341.5,103.167 341.5,99.5 Z"/></g>
<g><path style="opacity:1" fill="#1c1c1c" d="M 33.5,98.5 C 36.7974,101.296 39.9641,104.296 43,107.5C 43.3333,104.833 43.6667,102.167 44,99.5C 44.6667,103.167 44.6667,106.833 44,110.5C 41.3176,107.65 38.4843,104.984 35.5,102.5C 34.6816,105.107 34.1816,107.774 34,110.5C 33.5012,106.514 33.3345,102.514 33.5,98.5 Z"/></g>
<g><path style="opacity:1" fill="#737373" d="M 71.5,100.5 C 70.4964,103.045 70.163,106.379 70.5,110.5C 69.5166,106.702 69.1832,102.702 69.5,98.5C 71.604,98.2011 73.604,98.5344 75.5,99.5C 74.3112,100.429 72.9778,100.762 71.5,100.5 Z"/></g>
<g><path style="opacity:1" fill="#212121" d="M 136.5,100.5 C 142.453,99.0383 144.787,99.0383 143.5,100.5C 142.833,113.833 142.167,113.833 141.5,100.5C 139.833,100.5 138.167,100.5 136.5,100.5 Z"/></g>
<g><path style="opacity:1" fill="#f0f0f0" d="M 323.5,100.5 C 331.195,99.8489 333.195,102.849 329.5,109.5C 322.223,109.94 320.223,106.94 323.5,100.5 Z"/></g>
<g><path style="opacity:1" fill="#aaaaaa" d="M 290.5,103.5 C 290.5,104.167 290.5,104.833 290.5,105.5C 289.167,105.5 287.833,105.5 286.5,105.5C 285.432,104.566 284.099,104.232 282.5,104.5C 282.66,102.801 282.494,101.134 282,99.5C 281.501,103.152 281.335,106.818 281.5,110.5C 280.517,106.702 280.183,102.702 280.5,98.5C 281.5,98.5 282.5,98.5 283.5,98.5C 283.5,100.167 283.5,101.833 283.5,103.5C 285.833,103.5 288.167,103.5 290.5,103.5 Z"/></g>
<g><path style="opacity:1" fill="#3a3a3a" d="M 329.5,109.5 C 333.195,102.849 331.195,99.8489 323.5,100.5C 326.142,97.9664 328.976,97.9664 332,100.5C 334.404,104.565 333.571,107.565 329.5,109.5 Z"/></g>
<g><path style="opacity:1" fill="#c4c4c4" d="M 123.5,104.5 C 123.328,103.508 123.662,102.842 124.5,102.5C 126.501,101.59 127.835,102.423 128.5,105C 126.613,105.78 124.946,105.613 123.5,104.5 Z"/></g>
<g><path style="opacity:1" fill="#131313" d="M 169.5,99.5 C 170.167,99.5 170.5,99.8333 170.5,100.5C 168.01,101.108 166.676,102.775 166.5,105.5C 166.899,108.065 168.399,109.399 171,109.5C 175.375,109.08 177.042,106.747 176,102.5C 175.292,101.619 174.458,100.953 173.5,100.5C 173.5,99.8333 173.833,99.5 174.5,99.5C 178.088,102.389 178.421,105.722 175.5,109.5C 166.62,112.121 163.787,109.121 167,100.5C 167.671,99.7476 168.504,99.4142 169.5,99.5 Z"/></g>
<g><path style="opacity:1" fill="#f0f0f0" d="M 170.5,100.5 C 171.5,100.5 172.5,100.5 173.5,100.5C 174.458,100.953 175.292,101.619 176,102.5C 177.042,106.747 175.375,109.08 171,109.5C 168.399,109.399 166.899,108.065 166.5,105.5C 166.676,102.775 168.01,101.108 170.5,100.5 Z"/></g>
<g><path style="opacity:1" fill="#484848" d="M 290.5,105.5 C 290.5,104.833 290.5,104.167 290.5,103.5C 290.215,101.712 290.548,100.045 291.5,98.5C 292.833,102.5 292.833,106.5 291.5,110.5C 290.548,108.955 290.215,107.288 290.5,105.5 Z"/></g>
<g><path style="opacity:1" fill="#999999" d="M 341.5,99.5 C 341.56,98.9569 341.893,98.6236 342.5,98.5C 343.489,102.107 343.823,105.774 343.5,109.5C 342.833,106.167 342.167,102.833 341.5,99.5 Z"/></g>
<g><path style="opacity:1" fill="#131313" d="M 250.5,98.5 C 252.765,98.4406 253.098,99.2739 251.5,101C 253.422,102.419 254.755,104.253 255.5,106.5C 255.02,109.492 253.353,110.659 250.5,110C 255.786,107.349 255.619,104.849 250,102.5C 249.421,101.072 249.588,99.7382 250.5,98.5 Z"/></g>
<g><path style="opacity:1" fill="#161616" d="M 323.5,100.5 C 320.223,106.94 322.223,109.94 329.5,109.5C 322.671,112.176 319.837,109.843 321,102.5C 321.417,101.244 322.25,100.577 323.5,100.5 Z"/></g>
<g><path style="opacity:1" fill="#181818" d="M 123.5,104.5 C 124.946,105.613 126.613,105.78 128.5,105C 127.835,102.423 126.501,101.59 124.5,102.5C 124.709,101.078 125.209,99.745 126,98.5C 128.6,102.367 130.6,106.367 132,110.5C 130.761,108.018 128.761,106.685 126,106.5C 123.351,107.237 121.185,108.404 119.5,110C 120.488,107.833 121.821,106 123.5,104.5 Z"/></g>
<g><path style="opacity:1" fill="#1c1c1c" d="M 210.5,98.5 C 212.804,101.658 214.97,104.991 217,108.5C 217.688,109.332 217.521,109.998 216.5,110.5C 215.585,109.672 214.919,108.672 214.5,107.5C 213.333,107.167 212.167,106.833 211,106.5C 208.351,107.237 206.185,108.404 204.5,110C 206.64,106.219 208.64,102.385 210.5,98.5 Z"/></g>
<g><path style="opacity:1" fill="#f0f0f0" d="M 210.5,101.5 C 213.548,104.504 212.882,105.67 208.5,105C 209.305,103.887 209.972,102.721 210.5,101.5 Z"/></g>
<g><path style="opacity:1" fill="#1c1c1c" d="M 268.5,99.5 C 269.873,99.3433 271.207,99.51 272.5,100C 267.686,100.466 265.519,102.966 266,107.5C 268.166,109.121 270.666,109.955 273.5,110C 267.172,111.971 264.006,109.805 264,103.5C 265.397,101.93 266.897,100.596 268.5,99.5 Z"/></g>
<g><path style="opacity:1" fill="#9d9d9d" d="M 195.5,99.5 C 195.56,98.9569 195.893,98.6236 196.5,98.5C 197.809,102.649 197.809,106.649 196.5,110.5C 196.815,106.629 196.482,102.962 195.5,99.5 Z"/></g>
<g><path style="opacity:1" fill="#232323" d="M 304.5,99.5 C 305.167,99.5 305.5,99.8333 305.5,100.5C 302.498,102.468 301.832,105.135 303.5,108.5C 309.962,110.54 312.462,108.206 311,101.5C 310.329,100.748 309.496,100.414 308.5,100.5C 308.5,99.8333 308.833,99.5 309.5,99.5C 314.399,102.334 314.733,105.834 310.5,110C 303.421,112.071 300.254,109.571 301,102.5C 302.039,101.29 303.206,100.29 304.5,99.5 Z"/></g>
<g><path style="opacity:1" fill="#f5f5f5" d="M 305.5,100.5 C 306.5,100.5 307.5,100.5 308.5,100.5C 309.496,100.414 310.329,100.748 311,101.5C 312.462,108.206 309.962,110.54 303.5,108.5C 301.832,105.135 302.498,102.468 305.5,100.5 Z"/></g>
<g><path style="opacity:1" fill="#5f5f5f" d="M 31.5,116.5 C 31.5,116.833 31.5,117.167 31.5,117.5C 29.8333,117.5 28.1667,117.5 26.5,117.5C 27.8786,115.403 29.5453,115.07 31.5,116.5 Z"/></g>
<g><path style="opacity:1" fill="#656565" d="M 94.5,116.5 C 93.8333,116.5 93.5,116.833 93.5,117.5C 91.8333,117.5 90.1667,117.5 88.5,117.5C 89.1342,116.053 90.3009,115.387 92,115.5C 93.0698,115.528 93.9032,115.861 94.5,116.5 Z"/></g>
<g><path style="opacity:1" fill="#797979" d="M 241.5,116.5 C 243.167,115.167 244.833,115.167 246.5,116.5C 245.833,116.5 245.5,116.833 245.5,117.5C 244.5,117.5 243.5,117.5 242.5,117.5C 242.5,116.833 242.167,116.5 241.5,116.5 Z"/></g>
<g><path style="opacity:1" fill="#000000" d="M 11.5,117.5 C 11.5,118.833 11.5,120.167 11.5,121.5C 16.8333,121.833 16.8333,122.167 11.5,122.5C 11.7845,124.415 11.4511,126.081 10.5,127.5C 10.163,123.379 10.4964,120.045 11.5,117.5 Z"/></g>
<g><path style="opacity:1" fill="#212121" d="M 148.5,118.5 C 149.659,116.623 151.326,116.123 153.5,117C 151.846,117.608 150.179,118.108 148.5,118.5 Z"/></g>
<g><path style="opacity:1" fill="#181818" d="M 203.5,117.5 C 209.453,116.038 211.787,116.038 210.5,117.5C 209.833,130.833 209.167,130.833 208.5,117.5C 206.833,117.5 205.167,117.5 203.5,117.5 Z"/></g>
<g><path style="opacity:1" fill="#161616" d="M 227.5,121.5 C 227.5,120.167 227.5,118.833 227.5,117.5C 226.167,117.5 224.833,117.5 223.5,117.5C 223.665,120.85 223.498,124.183 223,127.5C 222.501,123.848 222.335,120.182 222.5,116.5C 224.527,116.338 226.527,116.505 228.5,117C 229.916,118.915 229.582,120.415 227.5,121.5 Z"/></g>
<g><path style="opacity:1" fill="#0f0f0f" d="M 261.5,119.5 C 259.78,121.658 258.947,124.325 259,127.5C 258.333,123.5 258.333,119.5 259,115.5C 259.662,116.984 260.496,118.317 261.5,119.5 Z"/></g>
<g><path style="opacity:1" fill="#050505" d="M 321.5,116.5 C 322.167,116.5 322.5,116.833 322.5,117.5C 322.5,118.833 322.5,120.167 322.5,121.5C 327.833,121.833 327.833,122.167 322.5,122.5C 322.5,123.833 322.5,125.167 322.5,126.5C 324.199,126.34 325.866,126.506 327.5,127C 325.527,127.495 323.527,127.662 321.5,127.5C 321.5,123.833 321.5,120.167 321.5,116.5 Z"/></g>
<g><path style="opacity:1" fill="#6c6c6c" d="M 321.5,116.5 C 323.035,115.212 324.701,115.212 326.5,116.5C 325.311,117.429 323.978,117.762 322.5,117.5C 322.5,116.833 322.167,116.5 321.5,116.5 Z"/></g>
<g><path style="opacity:1" fill="#171717" d="M 336.5,116.5 C 342.911,115.219 344.578,117.219 341.5,122.5C 343.139,123.916 343.973,125.583 344,127.5C 342.315,125.983 340.815,124.316 339.5,122.5C 340.95,121.15 341.617,119.484 341.5,117.5C 340.167,117.5 338.833,117.5 337.5,117.5C 337.665,120.85 337.498,124.183 337,127.5C 336.501,123.848 336.335,120.182 336.5,116.5 Z"/></g>
<g><path style="opacity:1" fill="#828282" d="M 11.5,117.5 C 10.4964,120.045 10.163,123.379 10.5,127.5C 9.51658,123.702 9.18325,119.702 9.5,115.5C 11.604,115.201 13.604,115.534 15.5,116.5C 14.3112,117.429 12.9778,117.762 11.5,117.5 Z"/></g>
<g><path style="opacity:1" fill="#171717" d="M 47.5,116.5 C 51.9195,117.09 52.5862,119.09 49.5,122.5C 51.1392,123.916 51.9725,125.583 52,127.5C 50.3149,125.983 48.8149,124.316 47.5,122.5C 48.9501,121.15 49.6168,119.484 49.5,117.5C 48.1667,117.5 46.8333,117.5 45.5,117.5C 45.8128,121.042 45.4794,124.375 44.5,127.5C 44.5,123.833 44.5,120.167 44.5,116.5C 45.5,116.5 46.5,116.5 47.5,116.5 Z"/></g>
<g><path style="opacity:1" fill="#f0f0f0" d="M 88.5,117.5 C 90.1667,117.5 91.8333,117.5 93.5,117.5C 97.1582,119.992 97.4915,122.992 94.5,126.5C 86.8053,127.151 84.8053,124.151 88.5,117.5 Z"/></g>
<g><path style="opacity:1" fill="#979797" d="M 116.5,116.5 C 115.833,118.833 115.167,121.167 114.5,123.5C 114.187,120.753 114.52,118.086 115.5,115.5C 116.107,115.624 116.44,115.957 116.5,116.5 Z"/></g>
<g><path style="opacity:1" fill="#383838" d="M 125.5,115.5 C 128.464,117.962 131.297,120.629 134,123.5C 134.186,121.1 134.686,118.766 135.5,116.5C 136.833,120.167 136.833,123.833 135.5,127.5C 132.5,125.167 129.833,122.5 127.5,119.5C 126.682,122.107 126.182,124.774 126,127.5C 125.501,123.514 125.334,119.514 125.5,115.5 Z"/></g>
<g><path style="opacity:1" fill="#232323" d="M 305.5,123.5 C 306.128,120.91 307.295,118.577 309,116.5C 310.309,120.099 311.809,123.599 313.5,127C 312.668,127.688 312.002,127.521 311.5,126.5C 310.568,124.205 309.735,121.871 309,119.5C 308.051,121.093 306.885,122.426 305.5,123.5 Z"/></g>
<g><path style="opacity:1" fill="#999999" d="M 47.5,116.5 C 46.5,116.5 45.5,116.5 44.5,116.5C 44.5,120.167 44.5,123.833 44.5,127.5C 43.5166,123.702 43.1832,119.702 43.5,115.5C 45.099,115.232 46.4324,115.566 47.5,116.5 Z"/></g>
<g><path style="opacity:1" fill="#171717" d="M 93.5,117.5 C 93.5,116.833 93.8333,116.5 94.5,116.5C 97.6142,118.814 98.2809,121.814 96.5,125.5C 96.0431,126.298 95.3764,126.631 94.5,126.5C 97.4915,122.992 97.1582,119.992 93.5,117.5 Z"/></g>
<g><path style="opacity:1" fill="#212121" d="M 241.5,116.5 C 242.167,116.5 242.5,116.833 242.5,117.5C 239.668,119.407 238.834,122.073 240,125.5C 246.168,127.99 248.835,125.99 248,119.5C 247.292,118.619 246.458,117.953 245.5,117.5C 245.5,116.833 245.833,116.5 246.5,116.5C 251.399,119.334 251.733,122.834 247.5,127C 240.081,129.556 236.915,127.056 238,119.5C 239.039,118.29 240.206,117.29 241.5,116.5 Z"/></g>
<g><path style="opacity:1" fill="#f6f6f6" d="M 242.5,117.5 C 243.5,117.5 244.5,117.5 245.5,117.5C 246.458,117.953 247.292,118.619 248,119.5C 248.835,125.99 246.168,127.99 240,125.5C 238.834,122.073 239.668,119.407 242.5,117.5 Z"/></g>
<g><path style="opacity:1" fill="#2f2f2f" d="M 281.5,115.5 C 290.316,115.967 292.316,119.8 287.5,127C 280.026,129.508 276.859,127.008 278,119.5C 279.376,118.295 280.542,116.962 281.5,115.5 Z"/></g>
<g><path style="opacity:1" fill="#efefef" d="M 281.5,117.5 C 288.486,117.331 290.153,120.164 286.5,126C 278.208,126.89 276.542,124.057 281.5,117.5 Z"/></g>
<g><path style="opacity:1" fill="#252525" d="M 352.5,117.5 C 353.239,117.369 353.906,117.536 354.5,118C 353.549,118.718 353.383,119.551 354,120.5C 359.74,122.717 359.74,125.05 354,127.5C 353.5,127.333 353,127.167 352.5,127C 354.002,126.417 355.335,125.584 356.5,124.5C 355.135,123.059 353.635,121.726 352,120.5C 351.53,119.423 351.697,118.423 352.5,117.5 Z"/></g>
<g><path style="opacity:1" fill="#191919" d="M 31.5,117.5 C 31.5,117.167 31.5,116.833 31.5,116.5C 34.2856,116.956 35.619,118.623 35.5,121.5C 34.4744,127.097 31.141,128.93 25.5,127C 23.5561,124.847 23.0561,122.347 24,119.5C 24.4169,118.244 25.2502,117.577 26.5,117.5C 24.3065,120.472 24.3065,123.305 26.5,126C 32.1674,127.328 34.6674,125.161 34,119.5C 33.2917,118.619 32.4584,117.953 31.5,117.5 Z"/></g>
<g><path style="opacity:1" fill="#f1f1f1" d="M 26.5,117.5 C 28.1667,117.5 29.8333,117.5 31.5,117.5C 32.4584,117.953 33.2917,118.619 34,119.5C 34.6674,125.161 32.1674,127.328 26.5,126C 24.3065,123.305 24.3065,120.472 26.5,117.5 Z"/></g>
<g><path style="opacity:1" fill="#303030" d="M 69.5,116.5 C 71.7288,117.055 73.3954,118.389 74.5,120.5C 75.2752,118.525 76.6086,117.691 78.5,118C 76.2824,120.75 74.9491,123.917 74.5,127.5C 74.1332,123.108 72.4665,119.442 69.5,116.5 Z"/></g>
<g><path style="opacity:1" fill="#515151" d="M 261.5,119.5 C 263.716,120.203 265.549,121.536 267,123.5C 267.182,120.774 267.682,118.107 268.5,115.5C 271.088,129.347 268.754,130.681 261.5,119.5 Z"/></g>
<g><path style="opacity:1" fill="#171717" d="M 179.5,119.5 C 181.223,121.253 182.723,123.253 184,125.5C 184.688,126.332 184.521,126.998 183.5,127.5C 182.585,126.672 181.919,125.672 181.5,124.5C 180.333,124.167 179.167,123.833 178,123.5C 175.351,124.237 173.185,125.404 171.5,127C 173.54,123.086 175.707,119.252 178,115.5C 178.791,116.745 179.291,118.078 179.5,119.5 Z"/></g>
<g><path style="opacity:1" fill="#dfdfdf" d="M 179.5,119.5 C 179.414,120.496 179.748,121.329 180.5,122C 175.193,123.328 174.36,122.162 178,118.5C 178.383,119.056 178.883,119.389 179.5,119.5 Z"/></g>
<g><path style="opacity:1" fill="#1b1b1b" d="M 193.5,116.5 C 194.552,116.351 195.552,116.517 196.5,117C 195.09,117.368 194.09,118.201 193.5,119.5C 195.097,120.791 196.43,122.291 197.5,124C 197.387,125.28 196.72,126.113 195.5,126.5C 194.709,125.934 194.709,125.101 195.5,124C 194.004,122.669 192.671,121.169 191.5,119.5C 192.193,118.482 192.859,117.482 193.5,116.5 Z"/></g>
<g><path style="opacity:1" fill="#272727" d="M 305.5,123.5 C 305.539,124.756 305.039,125.756 304,126.5C 301.596,118.715 299.596,118.715 298,126.5C 297.346,127.696 296.846,127.696 296.5,126.5C 297.765,123.204 298.932,119.871 300,116.5C 301.391,119.336 303.224,121.669 305.5,123.5 Z"/></g>
<g><path style="opacity:1" fill="#141414" d="M 227.5,121.5 C 231.607,128.932 230.941,129.265 225.5,122.5C 225.957,121.702 226.624,121.369 227.5,121.5 Z"/></g>
<g><path style="opacity:1" fill="#111111" d="M 88.5,117.5 C 84.8053,124.151 86.8053,127.151 94.5,126.5C 87.6708,129.176 84.8375,126.843 86,119.5C 86.4169,118.244 87.2502,117.577 88.5,117.5 Z"/></g>
<g><path style="opacity:1" fill="#1b1b1b" d="M 148.5,118.5 C 144.712,124.54 146.378,127.206 153.5,126.5C 154.003,121.5 154.336,121.833 154.5,127.5C 150.993,128.006 147.826,127.34 145,125.5C 144.08,122.006 145.246,119.673 148.5,118.5 Z"/></g>
<g><path style="opacity:1" fill="#232323" d="M 114.5,123.5 C 115.167,121.167 115.833,118.833 116.5,116.5C 116.929,120.257 116.263,123.757 114.5,127C 106.296,128.159 103.629,124.659 106.5,116.5C 107.204,119.704 107.87,122.871 108.5,126C 110.167,126.667 111.833,126.667 113.5,126C 114.252,125.329 114.586,124.496 114.5,123.5 Z"/></g>
</svg>
